<svg width="68" height="92" viewBox="0 0 68 92" fill="none" xmlns="http://www.w3.org/2000/svg">
<path d="M32.4905 7.75887C32.1019 8.80957 31.8793 9.88683 32.0071 11.0151L32.0082 11.0162C32.0731 11.5898 32.3169 11.9681 32.9749 11.9298C33.0453 11.9256 33.1159 11.9206 33.1866 11.9156C33.6008 11.886 34.0179 11.8562 34.4272 11.9978C34.4943 12.0206 34.5726 12.0113 34.6509 12.002C34.6856 11.9979 34.7203 11.9938 34.754 11.9925C34.7483 11.9576 34.7451 11.9215 34.7419 11.8854C34.7352 11.8085 34.7284 11.7314 34.6965 11.6663C34.1472 10.5338 34.1056 9.34501 34.325 8.13814C34.6657 6.27364 35.0032 4.4134 34.3463 2.54784C34.2472 1.93272 34.0268 1.36646 33.6627 0.859703C33.6284 0.811892 33.5748 0.77846 33.5211 0.744921C33.4949 0.728533 33.4686 0.7121 33.4445 0.69397C33.4383 0.720294 33.4308 0.746619 33.4232 0.773003C33.4057 0.833885 33.388 0.895214 33.388 0.957443C33.384 1.69738 33.3836 2.43672 33.3832 3.17635V3.17748C33.3831 3.42396 33.383 3.67068 33.3827 3.91726C33.2177 5.22825 32.9494 6.51587 32.4905 7.75887Z" fill="#F5D165"/>
<path d="M38.668 13.1314C39.064 12.4068 39.0289 11.627 38.9246 10.844C38.8287 10.128 38.997 9.60636 39.7465 9.28658C40.7946 8.84031 41.6138 8.07729 42.4325 7.31477C42.6526 7.10977 42.8727 6.9048 43.0971 6.70604C43.3587 6.46149 43.62 6.21694 43.8814 5.97226L43.9143 5.94149C44.1655 5.70639 44.4168 5.47116 44.6686 5.23569C44.6838 5.22059 44.6994 5.20524 44.7153 5.18963L44.7415 5.16384C44.7495 5.15598 44.7575 5.14806 44.7655 5.14008C44.8069 5.10428 44.8482 5.06805 44.8897 5.03173C44.9934 4.94086 45.0977 4.84945 45.2042 4.76293C45.349 4.64394 45.4957 4.52684 45.6424 4.40974C45.7157 4.35124 45.7891 4.2926 45.8622 4.23386C45.8265 4.32076 45.7939 4.40926 45.7612 4.4977C45.6905 4.68921 45.6198 4.88071 45.5193 5.05508C45.3347 5.37262 45.1322 5.67995 44.9299 5.98697L44.9296 5.98738C44.8403 6.12295 44.751 6.25845 44.6633 6.39476C44.3887 7.0021 44.1206 7.61264 43.8525 8.2231L43.8523 8.2237C43.2182 9.66757 42.5843 11.111 41.8653 12.5109C41.2041 13.7986 40.2246 14.0195 38.8767 13.4979C38.8699 13.4953 38.8632 13.4927 38.8565 13.4901L38.8333 13.4814C38.6735 13.4212 38.5381 13.3702 38.669 13.1314H38.668Z" fill="#F5D165"/>
<path d="M45.8856 14.1587C46.5516 13.8724 47.197 13.5381 47.8423 13.2038C49.1652 12.5185 50.4882 11.8332 51.9895 11.5612C52.6102 11.4485 53.2235 11.4369 53.8421 11.4655C53.9169 11.4692 53.9897 11.5178 54.0622 11.5662C54.096 11.5887 54.1298 11.6112 54.1636 11.6292C54.1471 11.6515 54.1319 11.6784 54.1168 11.7053C54.0851 11.7617 54.0536 11.8177 54.0103 11.8299C52.0161 12.3877 50.846 13.9207 49.677 15.4548C49.5686 15.832 49.283 16.0528 48.9978 16.2733C48.9328 16.3235 48.8678 16.3738 48.805 16.4258L48.8007 16.4301C47.5667 17.3724 46.1794 17.6742 44.6665 17.3799C43.5677 17.1653 43.4133 16.6968 44.099 15.7672C44.3843 14.8896 45.135 14.4806 45.8845 14.1587H45.8856Z" fill="#F5D165"/>
<path d="M56.0252 23.1054C55.0677 23.4493 54.1098 23.7933 53.1031 23.9773C53.1031 23.9771 53.1032 23.9769 53.1033 23.9767C53.1034 23.9765 53.1035 23.9764 53.1037 23.9762C53.1039 23.976 53.1042 23.9757 53.1042 23.9752L52.9634 24.0196C52.6166 24.1291 52.2704 24.2383 51.9234 24.346C50.6277 24.6296 49.3373 24.857 48.033 24.363C47.045 23.989 46.5307 22.934 46.8693 21.9407C47.0077 21.5359 47.325 21.4754 47.6785 21.4456C48.6373 21.3633 49.5061 21.6897 50.3692 22.0139C50.5086 22.0663 50.648 22.1186 50.7874 22.1691C50.9264 22.2197 51.0654 22.2307 51.2022 22.2415C51.3471 22.2529 51.4894 22.2642 51.6264 22.3221C52.6514 22.458 53.6768 22.4139 54.7021 22.3699C55.2721 22.3454 55.8424 22.321 56.4122 22.3274C56.44 22.3276 56.4693 22.3275 56.4994 22.3274C56.7655 22.3261 57.1007 22.3246 57.1447 22.5622C57.1904 22.8026 56.9654 22.8391 56.7555 22.8731C56.6815 22.8851 56.6094 22.8968 56.5517 22.917H56.5528C56.3769 22.9791 56.2013 23.0422 56.0256 23.1053L56.0252 23.1054Z" fill="#F5D165"/>
<path d="M33.1355 47.2761C32.9653 47.6791 32.795 48.0821 32.6258 48.4856C32.5896 48.5722 32.5318 48.6495 32.4738 48.7271C32.4464 48.7638 32.4189 48.8005 32.3937 48.8383C32.3862 48.7965 32.3771 48.7547 32.3681 48.7129C32.3477 48.6188 32.3274 48.5249 32.3245 48.4314C32.3178 48.1934 32.3194 47.9554 32.321 47.7174L32.321 47.7168C32.3217 47.6129 32.3223 47.509 32.3223 47.4051H32.4086C32.4086 46.8619 32.4097 46.3187 32.4108 45.7756C32.4139 44.255 32.417 42.7348 32.3958 41.2146C32.3907 40.7717 32.2688 40.325 32.1502 39.8901L32.1339 39.8303C32.0008 39.3405 32.2042 38.9634 32.53 38.6787C32.8632 38.3865 33.2444 38.5852 33.5744 38.7732C34.8031 39.4744 35.3834 41.7522 34.7169 43.4467V43.4456C34.2107 44.7309 33.6731 46.0036 33.1355 47.2761Z" fill="#F5D165"/>
<path d="M55.3757 33.5741C55.552 33.6039 55.7283 33.6336 55.9044 33.6642L55.9033 33.6631C55.9637 33.6737 56.0324 33.6988 56.103 33.7246C56.3022 33.7975 56.5157 33.8755 56.5943 33.644C56.6726 33.4144 56.3809 33.2522 56.1486 33.1231L56.1476 33.1226C56.1328 33.1143 56.1182 33.1062 56.1039 33.0982L56.0871 33.0887L56.0715 33.0799C55.578 32.7951 55.0693 32.5374 54.5605 32.2796C53.6457 31.8161 52.7308 31.3526 51.9043 30.732C51.8136 30.6148 51.6954 30.5356 51.575 30.455C51.4609 30.3785 51.3448 30.3008 51.2484 30.188C51.1526 30.0766 51.0577 29.9637 50.9628 29.8507L50.9625 29.8503C50.3691 29.1439 49.7719 28.4329 48.8954 28.0346C48.5728 27.888 48.2683 27.7849 47.9479 28.0696C47.1642 28.7698 47.0929 29.9405 47.7701 30.7501C48.6644 31.8199 49.9005 32.2533 51.1686 32.6411C51.4735 32.7061 51.7778 32.77 52.0829 32.8339L52.3791 32.8961C52.3791 32.8973 52.3784 32.8975 52.3778 32.8976C52.3774 32.8977 52.377 32.8978 52.377 32.8982C53.3526 33.2329 54.3644 33.4036 55.3757 33.5741Z" fill="#F5D165"/>
<path d="M48.8949 36.651C48.4111 36.1101 47.9272 35.5692 47.4848 34.9964L47.4859 34.9954C46.9876 34.3516 46.4052 33.7258 45.4821 33.6674C44.4099 33.2339 43.9926 33.4995 44.0564 34.615C44.1438 36.1502 44.7804 37.4166 46.0006 38.377L46.0048 38.3801C46.071 38.4279 46.1358 38.4783 46.2007 38.5286L46.201 38.5288C46.485 38.7493 46.7699 38.9704 47.1632 38.9825C48.9413 39.7336 50.7193 40.4858 51.7542 42.2759C51.7775 42.3158 51.8403 42.3324 51.9033 42.3491C51.9326 42.3568 51.962 42.3646 51.9874 42.3747C51.9964 42.3365 52.0102 42.2973 52.024 42.2582C52.0527 42.1768 52.0813 42.0956 52.0662 42.0231C51.9416 41.4175 51.7777 40.8268 51.5157 40.2553C50.8801 38.8704 49.8875 37.7606 48.8949 36.651Z" fill="#F5D165"/>
<path d="M41.6299 40.6823C42.5669 42.4767 42.3433 44.2509 41.5331 46.0113C41.5025 46.0787 41.4283 46.1259 41.3542 46.173C41.3197 46.1949 41.2852 46.2168 41.2552 46.2408C41.243 46.2102 41.229 46.1799 41.215 46.1496C41.1836 46.0817 41.1523 46.0138 41.1412 45.9433C41.088 45.5984 41.0411 45.2534 40.9941 44.9085C40.98 44.8051 40.966 44.7017 40.9517 44.5983C40.9418 44.5558 40.9317 44.5132 40.9216 44.4707L40.9213 44.4692C40.9013 44.3847 40.8813 44.3003 40.8623 44.2159C40.8442 44.1872 40.841 44.1553 40.8506 44.1245C40.841 44.0044 40.8314 43.8844 40.8208 43.7643C40.7973 43.7208 40.775 43.6783 40.7526 43.6347C40.5955 42.8998 40.2191 42.2723 39.8426 41.6446C39.6885 41.3876 39.5343 41.1306 39.3951 40.8661C38.7968 39.7273 38.6307 38.5512 39.2865 37.3762C39.4814 37.0267 39.7625 36.6623 40.2352 36.7271C40.7033 36.7923 40.7721 37.212 40.8324 37.5801L40.8399 37.6259C41.0113 38.6691 41.236 39.6986 41.6289 40.6823H41.6299Z" fill="#F5D165"/>
<path d="M45.761 26.73C46.3104 23.5715 45.5417 20.7126 43.6189 18.1873V18.1862C41.1881 14.9948 37.7225 14.0291 33.9226 13.8644C30.4943 13.7125 25.8916 15.9871 23.6578 19.2465C21.8936 21.8207 20.8534 24.482 21.4922 27.6107C22.3834 31.9856 25.0398 34.8084 29.2188 36.2947C32.7238 37.5419 36.2373 37.4729 39.4708 35.7348C42.9928 33.8416 45.069 30.7065 45.761 26.73Z" fill="#F5D165"/>
<path d="M22.8891 37.1531C22.4098 37.5605 21.8364 37.7955 21.2623 38.0309C20.7691 38.2331 20.2752 38.4355 19.8398 38.7477C18.559 39.4478 15.8206 39.2757 14.8102 38.4322C14.6824 38.3249 14.6749 38.2675 14.9816 38.1772C15.5849 37.9979 16.1949 37.8411 16.8047 37.6843C17.0439 37.6228 17.2832 37.5612 17.522 37.4984C18.9668 37.0447 20.1401 36.2628 20.9482 34.9327C21.373 34.2315 22.2844 34.1964 22.8657 34.7446C23.5865 35.4267 23.6195 36.5337 22.8891 37.1541V37.1531Z" fill="#F5D165"/>
<path d="M17.096 10.2684C17.0897 10.3124 17.0833 10.3563 17.1013 10.3872V10.3851C17.3312 10.7988 17.5676 11.2093 17.804 11.62L17.9126 11.8087C17.918 11.8303 17.9219 11.8525 17.9257 11.8746C17.9331 11.9178 17.9405 11.9606 17.9595 11.9978L18.0076 12.089C18.9639 13.9008 19.9205 15.7131 20.1006 17.8101C20.1227 18.0648 20.2385 17.9847 20.3387 17.9155C20.3593 17.9012 20.3793 17.8874 20.3977 17.8771C21.111 17.4776 21.8584 17.4989 22.6314 17.6487C22.6976 17.6613 22.7649 17.6992 22.8324 17.7372C22.9744 17.8172 23.1172 17.8977 23.2521 17.7443C23.402 17.5741 23.3274 17.3816 23.2545 17.1934C23.2296 17.129 23.2048 17.0651 23.1893 17.0027C23.1467 16.8306 23.0679 16.6659 22.9902 16.5055C22.0901 14.6343 20.6167 13.2619 19.1434 11.8896C18.7974 11.5674 18.4514 11.245 18.1128 10.9163C18.0287 10.6792 17.8322 10.5763 17.6352 10.4733C17.5029 10.4041 17.3705 10.3348 17.2717 10.2247C17.253 10.2038 17.2084 10.2054 17.1638 10.2069C17.1424 10.2076 17.121 10.2083 17.1024 10.2066C17.1021 10.2263 17.099 10.2473 17.096 10.2684Z" fill="#F5D165"/>
<path d="M24.0241 5.45822C24.0206 5.41203 24.017 5.36566 24.0103 5.32068C24.0543 5.32921 24.0992 5.33543 24.1439 5.34164C24.2386 5.35478 24.3327 5.36785 24.418 5.40249C26.2877 6.1621 27.5174 7.46777 27.8315 9.50544C27.907 10.0006 28.0796 10.4614 28.2521 10.9216C28.3812 11.266 28.5101 11.6101 28.5981 11.9681C28.7578 12.6161 28.7578 13.2567 28.2222 13.7327C27.5877 14.2979 26.8275 14.7866 25.964 14.5008C25.4728 14.3372 25.4899 13.9222 25.508 13.4845C25.5163 13.2827 25.5248 13.0761 25.4838 12.887C25.7447 10.9949 25.6968 9.07942 24.828 7.26592C24.7156 7.02992 24.5985 6.7964 24.4814 6.56297C24.3445 6.28994 24.2075 6.01693 24.0784 5.74033C24.0392 5.65562 24.0317 5.5571 24.0241 5.45822Z" fill="#F5D165"/>
<path d="M28.3424 38.5289C28.3403 38.5044 28.3339 38.4449 28.3233 38.3844L28.3211 38.3833C28.0677 36.8684 27.9996 36.8227 26.8455 37.73C26.6654 37.8715 26.4749 38.0024 26.2842 38.1335C25.652 38.5681 25.0178 39.004 24.7544 39.8324C24.307 41.2455 23.8344 42.6502 23.3619 44.0549C23.1395 44.716 22.9171 45.377 22.6974 46.0389C22.6792 46.0927 22.6749 46.151 22.6706 46.2097C22.6687 46.2367 22.6667 46.2639 22.6633 46.2907C22.6804 46.2752 22.6975 46.2601 22.7146 46.245L22.7167 46.2432L22.717 46.2429C22.7588 46.2059 22.8002 46.1694 22.839 46.1292C23.0563 45.9019 23.2744 45.6753 23.4925 45.4487L23.4928 45.4483L23.4937 45.4474C24.7247 44.1685 25.9563 42.889 27.035 41.477C27.0779 41.4208 27.1212 41.3647 27.1646 41.3083L27.1649 41.3079C27.7514 40.5468 28.3589 39.7585 28.3371 38.4896C28.3403 38.5076 28.3414 38.5214 28.3424 38.5289Z" fill="#F5D165"/>
<path d="M14.1308 22.4538C13.4292 22.2719 12.8969 21.7892 12.3607 21.3029C11.9922 20.9687 11.6218 20.6328 11.1933 20.3918C11.1672 20.3773 11.1475 20.3534 11.1279 20.3296C11.1187 20.3185 11.1095 20.3074 11.0996 20.2972C11.1241 20.2934 11.1486 20.2877 11.1731 20.282C11.2234 20.2705 11.2735 20.2589 11.3221 20.2632C11.5914 20.2902 11.8608 20.3156 12.1303 20.341C12.8168 20.4058 13.5038 20.4707 14.1872 20.5607C14.9096 20.6564 15.6377 20.6455 16.3656 20.6346C17.3338 20.6202 18.3016 20.6057 19.2552 20.8422C19.9473 21.0133 20.3742 21.4159 20.3742 22.3933C20.3363 22.5321 20.2965 22.6867 20.2538 22.8522C20.1386 23.2998 20.0026 23.8276 19.827 24.3417C19.7035 24.7029 19.2723 24.9505 19.0061 24.6604C17.8278 23.3769 16.2849 22.9919 14.7134 22.5997C14.5198 22.5514 14.3257 22.503 14.1319 22.4528L14.1308 22.4538Z" fill="#F5D165"/>
<path d="M12.1771 32.3787C13.3695 32.452 14.5503 32.3989 15.7278 32.1503L15.7268 32.1513C16.0908 32.0747 16.4525 31.9738 16.8144 31.8728C17.9378 31.5594 19.0633 31.2454 20.2656 31.6552C20.8853 31.8666 21.128 31.6138 21.1152 30.9827C21.0798 30.814 21.0458 30.6447 21.0117 30.4753C20.9372 30.1052 20.8626 29.7345 20.7735 29.3679C20.5531 28.451 19.8653 28.1769 19.0295 28.2301C18.2693 28.2768 17.5783 28.5509 16.9906 29.0694C16.8811 29.1658 16.7722 29.2633 16.6633 29.3608C15.8999 30.0446 15.1345 30.7301 14.1244 31.0592C14.0256 31.0914 13.9264 31.1228 13.8272 31.1543C13.2127 31.3492 12.5979 31.5441 12.0589 31.9155C11.9843 31.9668 11.9279 32.0443 11.8713 32.122C11.8447 32.1584 11.8181 32.195 11.7895 32.2289C11.8301 32.2453 11.8705 32.2654 11.9109 32.2856C11.9991 32.3296 12.0873 32.3736 12.1771 32.3787Z" fill="#F5D165"/>
<path d="M63.3338 38.4856C63.2701 38.8064 63.2255 39.1347 63.1373 39.4492C62.5721 41.4806 62.0366 43.5258 61.4278 45.5445C61.3587 45.7751 61.2876 46.0035 61.2164 46.2298C60.8987 45.7846 60.4004 45.5041 59.7683 45.4404C59.5165 45.4149 59.2476 45.4255 58.9618 45.4723C59.2275 44.8603 59.4431 44.2164 59.6078 43.5163C59.8352 42.5526 60.1157 41.5752 60.5438 40.6795C60.8583 40.0208 61.2759 39.3993 61.8241 38.9116C61.992 38.7629 63.3285 37.9235 63.3338 38.4845V38.4856ZM55.8478 46.2351C56.634 46.0258 57.4266 45.8229 58.2192 45.6369C58.3509 43.8361 58.4381 42.031 58.5475 40.228C58.5677 39.9018 58.5432 39.5725 58.5379 39.2452C58.4157 38.6981 57.2832 39.7988 57.1514 39.9783C56.7158 40.5701 56.4385 41.2649 56.2685 41.9747C56.0359 42.9404 55.9657 43.9551 55.9455 44.9453C55.936 45.3904 55.903 45.8186 55.8467 46.2351H55.8478ZM52.8177 47.067C53.5922 46.8513 54.3774 46.6314 55.17 46.4168C55.2719 44.8783 55.3495 43.3388 55.443 41.8025C55.4632 41.4753 55.4388 41.1459 55.4334 40.8187C55.3113 40.2715 54.1787 41.3722 54.0469 41.5518C53.6113 42.1436 53.334 42.8395 53.164 43.5482C52.9314 44.5139 52.8612 45.5286 52.8411 46.5188C52.8368 46.7058 52.8294 46.8874 52.8166 47.067H52.8177ZM65.7998 38.3379C65.2516 38.8245 64.834 39.4471 64.5195 40.1058C64.0914 41.0015 63.8109 41.9789 63.5846 42.9426C63.167 44.719 62.4127 46.1299 61.3757 47.6067C60.9008 48.2846 60.3792 48.9104 59.7927 49.4735C59.3815 49.8676 58.9395 50.231 58.4572 50.5572C58.0343 50.844 57.5913 51.0926 57.1366 51.3147C56.4874 51.6324 55.8138 51.8969 55.1317 52.1445C54.8055 52.2624 54.4879 52.391 54.1787 52.5354C53.9917 52.6226 53.8079 52.7161 53.6294 52.8181C53.0886 53.1198 52.5839 53.4842 52.1356 53.94C52.057 54.0197 51.9433 54.0654 51.8466 54.127C51.8509 54.1153 51.8551 54.1036 51.8594 54.0919C51.871 54.0601 51.8827 54.0293 51.8955 53.9984C52.2312 53.1867 52.7072 52.5238 53.316 52.001C53.5253 51.8204 53.7495 51.6568 53.9906 51.5091C54.1851 51.3901 54.3901 51.2817 54.6037 51.184C54.7705 51.1064 54.9426 51.0363 55.1211 50.9736C55.9434 50.6793 56.7764 50.4105 57.5828 50.0822C58.3021 49.789 59.0012 49.448 59.6524 48.9985C59.866 48.8509 60.1061 48.7138 60.308 48.5481C60.5608 48.3409 60.7542 48.088 60.768 47.713C60.7712 47.6407 60.7701 47.5717 60.767 47.5047C60.717 46.5209 60.0264 46.0906 58.8864 46.352C58.7536 46.3828 58.6197 46.4136 58.4859 46.4455C58.3743 46.472 58.2628 46.4975 58.1512 46.5262C57.3278 46.7238 56.5065 46.9363 55.6874 47.1562C55.494 47.2072 55.2996 47.2604 55.1073 47.3124C54.3104 47.5302 53.5147 47.7533 52.7189 47.9765C51.4386 48.3334 50.1594 48.6904 48.8717 49.0187C46.6289 49.5924 44.6623 50.4392 43.4819 52.5779C42.8285 53.7626 42.3132 55.0056 41.7809 56.2445C40.166 60.0194 38.7242 63.8623 37.2071 67.6743C37.1136 67.907 37.0445 68.1578 37.2304 68.3915C37.6958 68.9705 38.2249 69.4539 39.0005 69.5698C41.3315 70.0734 42.4726 68.5009 43.2174 66.5407C43.9143 64.7058 44.6814 62.872 45.8427 61.289C46.9625 59.7622 48.604 58.2971 50.5069 57.8881C53.265 57.2952 57.2502 56.5749 59.3263 54.5488C59.6811 54.2014 59.9861 53.8072 60.2889 53.413C62.3968 50.674 64.3942 48.3239 65.4035 44.9676C66.0102 42.95 66.5478 40.9048 67.113 38.8734C67.2001 38.5589 67.2447 38.2306 67.3085 37.9097C67.3042 37.3487 65.9666 38.1881 65.7987 38.3368L65.7998 38.3379Z" fill="#FFD1A7"/>
<path d="M6.17596 38.9126C6.72418 39.4003 7.14173 40.0218 7.45621 40.6806C7.88438 41.5762 8.16487 42.5537 8.39224 43.5173C8.55692 44.2175 8.77259 44.8613 9.03821 45.4733C8.75241 45.4265 8.48361 45.4159 8.23181 45.4414C7.59965 45.5052 7.10136 45.7857 6.78368 46.2308C6.71144 46.0045 6.64131 45.775 6.57225 45.5455C5.96347 43.5269 5.42799 41.4817 4.86277 39.4502C4.77458 39.1358 4.72996 38.8075 4.66621 38.4866C4.67153 37.9256 6.00809 38.765 6.17596 38.9137V38.9126ZM12.0545 44.9453C12.0343 43.9551 11.9642 42.9404 11.7315 41.9746C11.5615 41.2649 11.2842 40.569 10.8486 39.9783C10.7158 39.7987 9.58431 38.698 9.46213 39.2452C9.45788 39.5735 9.43344 39.9029 9.45256 40.228C9.562 42.0299 9.64912 43.8361 9.78086 45.6369C10.5735 45.8228 11.366 46.0258 12.1523 46.2351C12.097 45.8186 12.063 45.3904 12.0534 44.9453H12.0545ZM15.159 46.5187C15.1388 45.5285 15.0687 44.5139 14.836 43.5481C14.6671 42.8395 14.3887 42.1425 13.9531 41.5518C13.8203 41.3722 12.6888 40.2715 12.5666 40.8187C12.5624 41.147 12.5379 41.4763 12.5571 41.8025C12.6505 43.3388 12.7281 44.8783 12.8301 46.4168C13.6227 46.6314 14.4078 46.8513 15.1824 47.067C15.1696 46.8864 15.1622 46.7047 15.1579 46.5187H15.159ZM0.690516 37.9097C0.754263 38.2306 0.798886 38.5588 0.886007 38.8733C1.45123 40.9047 1.98777 42.95 2.59549 44.9676C3.60589 48.3249 5.60223 50.6751 7.71014 53.413C8.01294 53.8061 8.31786 54.2013 8.67272 54.5488C10.7488 56.5759 14.733 57.2952 17.4921 57.8881C19.3939 58.2971 21.0365 59.7633 22.1563 61.289C23.3176 62.872 24.0836 64.7058 24.7816 66.5407C25.5264 68.5009 26.6686 70.0733 28.9985 69.5697C29.7741 69.455 30.3032 68.9716 30.7686 68.3915C30.9545 68.1577 30.8854 67.908 30.7919 67.6743C29.2758 63.8622 27.8341 60.0193 26.2181 56.2444C25.6858 55.0046 25.1716 53.7626 24.5171 52.5779C23.3367 50.4392 21.3712 49.5924 19.1273 49.0187C17.8396 48.6893 16.5604 48.3334 15.2801 47.9764C14.4843 47.7544 13.6896 47.5302 12.8917 47.3124C12.6984 47.2603 12.5039 47.2072 12.3116 47.1562C11.4925 46.9363 10.6723 46.7227 9.8478 46.5262C9.73624 46.4975 9.62468 46.472 9.51312 46.4454C9.37926 46.4136 9.24645 46.3828 9.11258 46.3519C7.97257 46.0906 7.28197 46.5209 7.23204 47.5047C7.22779 47.5716 7.22779 47.6407 7.23098 47.7129C7.24372 48.088 7.43815 48.3398 7.69102 48.548C7.89395 48.7148 8.13406 48.8519 8.34655 48.9985C8.99677 49.4479 9.69693 49.789 10.4162 50.0822C11.2237 50.4105 12.0566 50.6793 12.8779 50.9736C13.0564 51.0374 13.2285 51.1075 13.3953 51.184C13.6089 51.2807 13.8139 51.3901 14.0084 51.5091C14.2495 51.6568 14.4737 51.8204 14.683 52.001C15.2918 52.5237 15.7678 53.1867 16.1035 53.9984C16.1163 54.0292 16.128 54.06 16.1396 54.0919C16.1439 54.1036 16.1481 54.1153 16.1524 54.127C16.0557 54.0654 15.942 54.0197 15.8634 53.94C15.414 53.4842 14.9093 53.1198 14.3696 52.818C14.1911 52.716 14.0073 52.6225 13.8203 52.5354C13.5111 52.3899 13.1924 52.2624 12.8673 52.1444C12.1852 51.8969 11.5116 51.6323 10.8624 51.3147C10.4077 51.0926 9.9636 50.8429 9.54181 50.5571C9.05946 50.232 8.61748 49.8687 8.20631 49.4734C7.61983 48.9103 7.09817 48.2845 6.62325 47.6067C5.5863 46.1288 4.83196 44.719 4.41441 42.9425C4.18811 41.9789 3.90762 41.0004 3.47945 40.1058C3.16497 39.4471 2.74742 38.8245 2.1992 38.3379C2.03133 38.1891 0.693703 37.3498 0.689453 37.9108L0.690516 37.9097Z" fill="#FFD1A7"/>
<path d="M1.08327 21.1081C2.00883 22.0271 2.57614 23.3447 2.57505 24.769C2.57287 26.7889 2.95181 30.0327 3.01932 30.9365C3.08574 31.8402 3.2959 33.5237 4.05594 34.6278C4.09079 34.679 4.08534 34.7596 4.09841 34.826C4.03852 34.777 3.96339 34.7389 3.92092 34.6779C2.54892 32.7135 3.10861 30.0414 2.43676 27.7896C2.15583 26.8477 1.30214 26.3718 0.820845 25.5954C-0.0208689 24.2398 -0.263692 22.8351 0.319954 21.3303C0.414688 21.0853 0.503977 20.6813 1.08436 21.1081H1.08327ZM0.0836648 15.3435C-0.0437356 17.5344 1.1486 19.0011 2.76343 20.2512C2.99972 20.4341 2.99863 20.3437 3.04872 20.1597C3.74234 17.6356 3.15434 15.9751 1.05822 14.3559C0.616133 14.014 0.454977 14.222 0.191465 14.663C0.166421 14.8154 0.0989093 15.0789 0.0836648 15.3446V15.3435ZM2.58376 9.47767C1.5896 11.4344 2.09267 13.255 3.07158 15.0473C3.21423 15.3098 3.24907 15.2259 3.36994 15.0778C5.01744 13.0438 5.14375 11.2863 3.87192 8.96262C3.60405 8.47262 3.37321 8.59784 2.95507 8.8962C2.87123 9.02578 2.70354 9.24029 2.58267 9.47767H2.58376ZM5.91904 4.7987C4.65048 6.58992 4.8835 8.465 5.59128 10.3804C5.69473 10.6602 5.74155 10.5829 5.88202 10.4533C7.80827 8.6806 8.18829 6.96015 7.26926 4.47638C7.07544 3.95263 6.82826 4.04301 6.37202 4.27712C6.26966 4.39254 6.07366 4.58092 5.91904 4.7987ZM10.3802 1.32404C8.81005 2.8572 8.70116 4.74425 9.05287 6.75544C9.10405 7.04944 9.16394 6.98193 9.32509 6.87957C11.5388 5.48252 12.2226 3.85898 11.7664 1.25C11.6706 0.700106 11.4114 0.744751 10.9192 0.89284C10.7984 0.988663 10.5708 1.13784 10.3802 1.32404ZM16.3092 0.198127C14.2774 1.02895 13.4683 2.73634 13.0371 4.73227C12.974 5.0241 13.0545 4.98381 13.2429 4.95005C15.8192 4.48727 17.0638 3.24049 17.6214 0.651106C17.739 0.104482 17.482 0.04786 16.9713 0.0010376C16.8232 0.0445933 16.5564 0.0968601 16.3092 0.198127ZM7.07544 21.6079C5.04357 22.4387 4.23452 24.1461 3.80332 26.1421C3.74016 26.4339 3.82074 26.3936 4.00912 26.3599C6.58544 25.8971 7.83004 24.6503 8.38756 22.0609C8.50516 21.5154 8.24818 21.4587 7.73749 21.4119C7.5894 21.4555 7.32262 21.5077 7.07544 21.609V21.6079ZM6.70522 16.88C4.67335 17.7108 3.8643 19.4182 3.4331 21.4141C3.36994 21.7059 3.45052 21.6656 3.6389 21.6319C6.21522 21.1691 7.45982 19.9223 8.01733 17.3329C8.13493 16.7874 7.87796 16.7308 7.36726 16.684C7.21918 16.7275 6.9524 16.7798 6.70522 16.881V16.88ZM9.05178 11.9952C6.86529 12.1879 5.58802 13.5806 4.58623 15.3599C4.44032 15.6201 4.52852 15.606 4.71908 15.6288C7.31718 15.9479 8.87429 15.1247 10.1723 12.8151C10.4456 12.3284 10.2169 12.1988 9.74323 12.0028C9.5886 12.0006 9.31856 11.9723 9.05287 11.9952H9.05178ZM12.2346 7.33473C10.0481 7.52746 8.77085 8.92015 7.76907 10.6994C7.62315 10.9596 7.71136 10.9455 7.90191 10.9684C10.5 11.2874 12.0571 10.4642 13.3551 8.15466C13.6284 7.66793 13.3997 7.53835 12.9261 7.34235C12.7714 7.34017 12.5014 7.31186 12.2357 7.33473H12.2346Z" fill="#F5D165"/>
<path d="M67.6803 21.3303C68.2639 22.8352 68.0211 24.2398 67.1794 25.5955C66.6981 26.3719 65.8444 26.8477 65.5635 27.7896C64.8927 30.0404 65.4513 32.7125 64.0793 34.678C64.0368 34.7389 63.9617 34.777 63.9018 34.826C63.9149 34.7596 63.9084 34.679 63.9443 34.6279C64.7033 33.5237 64.9134 31.8403 64.9809 30.9365C65.0484 30.0327 65.4274 26.7878 65.4252 24.769C65.423 23.3448 65.9903 22.0272 66.917 21.1082C67.4974 20.6813 67.5866 21.0853 67.6814 21.3303H67.6803ZM67.8066 14.6619C67.5442 14.2209 67.3819 14.014 66.9398 14.3549C64.8437 15.9751 64.2557 17.6346 64.9493 20.1587C65.0005 20.3427 64.9983 20.4331 65.2346 20.2501C66.8495 19.0001 68.0407 17.5333 67.9144 15.3425C67.8992 15.0757 67.8316 14.8133 67.8066 14.6608V14.6619ZM65.0419 8.89625C64.6249 8.59789 64.3929 8.47267 64.125 8.96267C62.8543 11.2864 62.9806 13.0438 64.627 15.0779C64.7468 15.226 64.7827 15.3098 64.9254 15.0474C65.9043 13.2551 66.4074 11.4345 65.4132 9.47772C65.2923 9.24034 65.1247 9.02583 65.0408 8.89625H65.0419ZM61.626 4.27717C61.1698 4.04306 60.9226 3.95268 60.7288 4.47644C59.8098 6.96129 60.1909 8.68065 62.116 10.4534C62.2565 10.5829 62.3033 10.6603 62.4068 10.3804C63.1146 8.46505 63.3476 6.58998 62.079 4.79875C61.9244 4.58097 61.7284 4.39368 61.626 4.27717ZM57.0788 0.892892C56.5877 0.744802 56.3286 0.700158 56.2317 1.25005C55.7754 3.85903 56.4593 5.48257 58.673 6.87962C58.8341 6.98198 58.894 7.04949 58.9452 6.75549C59.2958 4.7443 59.188 2.85725 57.6178 1.32409C57.4273 1.13789 57.1997 0.988714 57.0788 0.892892ZM51.0279 0.00108889C50.5172 0.0479113 50.2602 0.104534 50.3778 0.650069C50.9353 3.23945 52.1799 4.48624 54.7562 4.94901C54.9446 4.98277 55.0252 5.02306 54.962 4.73124C54.5308 2.7353 53.7218 1.02791 51.6899 0.197089C51.4427 0.0958225 51.1759 0.0435557 51.0279 0V0.00108889ZM60.2617 21.4109C59.751 21.4577 59.494 21.5143 59.6116 22.0599C60.1691 24.6493 61.4137 25.896 63.99 26.3588C64.1784 26.3926 64.259 26.4329 64.1958 26.141C63.7646 24.1451 62.9556 22.4377 60.9237 21.6069C60.6765 21.5056 60.4097 21.4534 60.2617 21.4098V21.4109ZM60.6319 16.6829C60.1212 16.7297 59.8642 16.7864 59.9818 17.3319C60.5393 19.9213 61.7839 21.1681 64.3603 21.6308C64.5486 21.6646 64.6292 21.7049 64.5661 21.4131C64.1349 19.4171 63.3258 17.7097 61.2939 16.8789C61.0468 16.7777 60.78 16.7254 60.6319 16.6818V16.6829ZM58.257 12.0029C57.7823 12.1989 57.5536 12.3284 57.828 12.8152C59.1259 15.1247 60.6831 15.9479 63.2812 15.6289C63.4706 15.606 63.5599 15.6202 63.414 15.3599C62.4122 13.5807 61.135 12.188 58.9485 11.9952C58.6828 11.9713 58.4127 12.0007 58.2581 12.0029H58.257ZM55.0742 7.3424C54.5994 7.5384 54.3708 7.66798 54.6452 8.15471C55.9431 10.4643 57.5002 11.2875 60.0983 10.9684C60.2878 10.9455 60.3771 10.9597 60.2312 10.6995C59.2294 8.92021 57.9521 7.52751 55.7656 7.33478C55.4999 7.31082 55.2299 7.34022 55.0753 7.3424H55.0742Z" fill="#F5D165"/>
<path d="M2.19614 83.9467C2.22014 84.8427 2.25215 85.6668 2.29215 86.4189C3.29221 85.8348 3.92826 85.1348 4.20027 84.3187C4.23227 83.7427 4.03626 83.4467 3.61223 83.4307C2.98019 83.4467 2.50816 83.6187 2.19614 83.9467ZM1.98013 78.7744L4.48829 78.3903C4.77631 78.2143 4.98032 78.1263 5.10033 78.1263C5.30834 78.1263 5.49236 78.2903 5.65237 78.6183C5.79638 78.9064 5.86838 79.1824 5.86838 79.4464C5.86838 79.6544 5.80038 79.8264 5.66437 79.9624C5.53636 80.0904 5.40435 80.1544 5.26834 80.1544C5.11633 80.1544 4.87632 80.0784 4.5483 79.9264L2.01613 80.3345L2.13614 82.5066C2.54417 82.2026 3.1402 82.0506 3.92426 82.0506C5.22034 82.0506 5.88038 82.6506 5.90438 83.8507C5.92839 84.2187 5.78838 84.6987 5.48436 85.2908C4.70831 86.6029 3.80425 87.5909 2.77218 88.255C2.67617 88.487 2.47616 88.615 2.17214 88.639C1.79612 88.655 1.43609 88.491 1.09207 88.147C0.748049 87.8109 0.576037 87.5789 0.576037 87.4509C0.576037 87.2989 0.652042 87.0989 0.804052 86.8509L0.46803 79.7584C0.340022 79.4864 0.276018 79.2584 0.276018 79.0744C0.276018 78.9464 0.30802 78.8584 0.372024 78.8104C0.500032 78.7224 0.61204 78.6703 0.708046 78.6543C0.740048 78.6543 0.896058 78.6583 1.17608 78.6663C1.4641 78.6663 1.73211 78.7024 1.98013 78.7744ZM8.02374 88.555C7.95974 88.579 7.88773 88.591 7.80773 88.591C7.55171 88.591 7.29169 88.511 7.02768 88.351C6.76366 88.191 6.63165 88.047 6.63165 87.9189C6.63165 87.7749 6.70765 87.5789 6.85966 87.3309L6.73966 79.5424C6.60365 79.3024 6.53564 79.1144 6.53564 78.9784C6.53564 78.5863 6.82766 78.3903 7.4117 78.3903C7.77172 78.3903 8.08774 78.4823 8.35976 78.6663C8.59978 78.8344 8.71978 79.0104 8.71978 79.1944C8.71978 79.2904 8.61978 79.5384 8.41977 79.9384L8.53977 85.0268C9.47583 82.8186 10.3799 80.8505 11.2519 79.1224C11.2199 79.0264 11.2039 78.9464 11.2039 78.8824C11.2039 78.4983 11.484 78.3063 12.044 78.3063C12.372 78.3063 12.676 78.3823 12.9561 78.5343C13.2441 78.6863 13.3881 78.8744 13.3881 79.0984C13.3881 79.1944 13.2881 79.4424 13.0881 79.8424V87.1149C13.2241 87.3789 13.2921 87.6109 13.2921 87.8109C13.2921 88.083 13.0521 88.219 12.572 88.219C12.284 88.219 11.98 88.147 11.66 88.003C11.34 87.8589 11.1799 87.7189 11.1799 87.5829C11.1799 87.4389 11.2559 87.2429 11.408 86.9949V82.0866C10.8399 83.5347 9.93986 85.4708 8.70778 87.8949C8.66778 87.999 8.62778 88.099 8.58778 88.195C8.47577 88.371 8.28776 88.491 8.02374 88.555ZM15.7397 78.3543C15.8677 78.3543 15.9917 78.3743 16.1117 78.4143C16.2397 78.4543 16.3597 78.4743 16.4717 78.4743C16.5677 78.4743 16.7397 78.4543 16.9878 78.4143C17.2358 78.3663 17.4158 78.3423 17.5278 78.3423C17.6478 78.3423 17.7478 78.3583 17.8278 78.3903C18.4759 78.6543 18.9839 79.1704 19.3519 79.9384C19.7439 80.7625 19.94 81.8066 19.94 83.0706C19.94 84.6707 19.6679 85.9988 19.1239 87.0549C18.6519 87.975 18.1478 88.435 17.6118 88.435C17.5398 88.435 17.4718 88.423 17.4078 88.399C17.3998 88.399 17.2118 88.375 16.8437 88.327C16.0277 88.231 15.3517 87.6789 14.8156 86.6709C14.2876 85.6628 14.0236 84.4627 14.0236 83.0706C14.0236 82.0706 14.1956 81.0505 14.5396 80.0104C14.9156 78.9064 15.3157 78.3543 15.7397 78.3543ZM16.9398 79.5424C16.5237 79.5424 16.1957 80.0464 15.9557 81.0545C15.7877 81.7665 15.7037 82.4386 15.7037 83.0706C15.7037 83.6947 15.8117 84.4587 16.0277 85.3628C16.2997 86.4749 16.6117 87.0309 16.9638 87.0309C17.3478 87.0309 17.6798 86.4669 17.9598 85.3388C18.1998 84.3707 18.2998 83.6147 18.2598 83.0706C18.1398 80.7185 17.6998 79.5424 16.9398 79.5424ZM22.0286 88.555C21.9646 88.579 21.8925 88.591 21.8125 88.591C21.5565 88.591 21.2965 88.511 21.0325 88.351C20.7685 88.191 20.6365 88.047 20.6365 87.9189C20.6365 87.7749 20.7125 87.5789 20.8645 87.3309L20.7445 79.5424C20.6085 79.3024 20.5405 79.1144 20.5405 78.9784C20.5405 78.5863 20.8325 78.3903 21.4165 78.3903C21.7765 78.3903 22.0926 78.4823 22.3646 78.6663C22.6046 78.8344 22.7246 79.0104 22.7246 79.1944C22.7246 79.2904 22.6246 79.5384 22.4246 79.9384L22.5446 85.0268C23.4807 82.8186 24.3847 80.8505 25.2568 79.1224C25.2248 79.0264 25.2088 78.9464 25.2088 78.8824C25.2088 78.4983 25.4888 78.3063 26.0488 78.3063C26.3768 78.3063 26.6809 78.3823 26.9609 78.5343C27.2489 78.6863 27.3929 78.8744 27.3929 79.0984C27.3929 79.1944 27.2929 79.4424 27.0929 79.8424V87.1149C27.2289 87.3789 27.2969 87.6109 27.2969 87.8109C27.2969 88.083 27.0569 88.219 26.5769 88.219C26.2888 88.219 25.9848 88.147 25.6648 88.003C25.3448 87.8589 25.1848 87.7189 25.1848 87.5829C25.1848 87.4389 25.2608 87.2429 25.4128 86.9949V82.0866C24.8447 83.5347 23.9447 85.4708 22.7126 87.8949C22.6726 87.999 22.6326 88.099 22.5926 88.195C22.4806 88.371 22.2926 88.491 22.0286 88.555ZM32.3967 83.9947L29.9965 84.3547V87.2949C30.1325 87.5589 30.2005 87.7949 30.2005 88.003C30.2005 88.275 29.9605 88.411 29.4805 88.411C29.1845 88.411 28.8764 88.335 28.5564 88.183C28.2444 88.039 28.0884 87.9029 28.0884 87.7749C28.0884 87.6229 28.1644 87.4229 28.3164 87.1749V84.5707C28.2604 84.5067 28.2084 84.4267 28.1604 84.3307C28.1204 84.2267 28.1004 84.1067 28.1004 83.9707C28.1004 83.7707 28.1244 83.6107 28.1724 83.4907C28.2204 83.3627 28.2684 83.2426 28.3164 83.1306V79.5064C28.1804 79.2744 28.1124 79.0904 28.1124 78.9544C28.1124 78.5623 28.4044 78.3663 28.9884 78.3663C29.3485 78.3663 29.6565 78.4543 29.9125 78.6303C30.1685 78.8064 30.2965 78.9864 30.2965 79.1704C30.2965 79.2584 30.1965 79.5024 29.9965 79.9024V82.8186L32.3967 82.4586V79.4584C32.2767 79.1864 32.2167 78.9584 32.2167 78.7744C32.2167 78.6463 32.2487 78.5583 32.3127 78.5103C32.4327 78.4223 32.5407 78.3743 32.6367 78.3663C32.7807 78.3663 32.9247 78.3663 33.0687 78.3663C33.3567 78.3503 33.6287 78.3983 33.8848 78.5103C34.2128 78.6543 34.3768 78.8744 34.3768 79.1704C34.3768 79.2584 34.2768 79.5024 34.0768 79.9024V82.2306C34.1568 82.2946 34.2288 82.3706 34.2928 82.4586C34.3568 82.5386 34.3888 82.6546 34.3888 82.8066C34.3888 83.0386 34.3568 83.2426 34.2928 83.4187C34.2288 83.5867 34.1568 83.7187 34.0768 83.8147V86.8149C34.2208 87.1509 34.2928 87.3869 34.2928 87.5229C34.2928 87.7949 34.0528 87.931 33.5727 87.931C33.2767 87.931 32.9687 87.8589 32.6487 87.7149C32.3367 87.5629 32.1807 87.4229 32.1807 87.2949C32.1807 87.1429 32.2527 86.9429 32.3967 86.6949V83.9947ZM40.075 84.4387C40.011 84.4947 39.931 84.5227 39.835 84.5227C39.795 84.5227 39.703 84.5107 39.559 84.4867C39.423 84.4547 39.315 84.4467 39.235 84.4627L36.7148 84.8467C36.6188 84.8628 36.4948 84.9068 36.3428 84.9788C36.1908 85.0428 36.0707 85.0748 35.9827 85.0748C35.7907 85.0748 35.6187 84.9828 35.4667 84.7987C35.3227 84.6067 35.2507 84.4147 35.2507 84.2227C35.2507 84.0627 35.2987 83.9267 35.3947 83.8147C35.4267 83.7827 35.5467 83.7627 35.7547 83.7547C36.0427 83.7467 36.2348 83.7347 36.3308 83.7187L38.9229 83.2866C38.9789 83.2786 39.0989 83.2506 39.283 83.2026C39.419 83.1706 39.527 83.1546 39.607 83.1546C39.703 83.1546 39.787 83.1746 39.859 83.2146C40.107 83.3587 40.231 83.6227 40.231 84.0067C40.231 84.2067 40.179 84.3507 40.075 84.4387ZM45.4874 83.9947L43.0872 84.3547V87.2949C43.2232 87.5589 43.2912 87.7949 43.2912 88.003C43.2912 88.275 43.0512 88.411 42.5712 88.411C42.2751 88.411 41.9671 88.335 41.6471 88.183C41.3351 88.039 41.1791 87.9029 41.1791 87.7749C41.1791 87.6229 41.2551 87.4229 41.4071 87.1749V84.5707C41.3511 84.5067 41.2991 84.4267 41.2511 84.3307C41.2111 84.2267 41.1911 84.1067 41.1911 83.9707C41.1911 83.7707 41.2151 83.6107 41.2631 83.4907C41.3111 83.3627 41.3591 83.2426 41.4071 83.1306V79.5064C41.2711 79.2744 41.2031 79.0904 41.2031 78.9544C41.2031 78.5623 41.4951 78.3663 42.0791 78.3663C42.4392 78.3663 42.7472 78.4543 43.0032 78.6303C43.2592 78.8064 43.3872 78.9864 43.3872 79.1704C43.3872 79.2584 43.2872 79.5024 43.0872 79.9024V82.8186L45.4874 82.4586V79.4584C45.3673 79.1864 45.3073 78.9584 45.3073 78.7744C45.3073 78.6463 45.3393 78.5583 45.4034 78.5103C45.5234 78.4223 45.6314 78.3743 45.7274 78.3663C45.8714 78.3663 46.0154 78.3663 46.1594 78.3663C46.4474 78.3503 46.7194 78.3983 46.9755 78.5103C47.3035 78.6543 47.4675 78.8744 47.4675 79.1704C47.4675 79.2584 47.3675 79.5024 47.1675 79.9024V82.2306C47.2475 82.2946 47.3195 82.3706 47.3835 82.4586C47.4475 82.5386 47.4795 82.6546 47.4795 82.8066C47.4795 83.0386 47.4475 83.2426 47.3835 83.4187C47.3195 83.5867 47.2475 83.7187 47.1675 83.8147V86.8149C47.3115 87.1509 47.3835 87.3869 47.3835 87.5229C47.3835 87.7949 47.1435 87.931 46.6634 87.931C46.3674 87.931 46.0594 87.8589 45.7394 87.7149C45.4274 87.5629 45.2713 87.4229 45.2713 87.2949C45.2713 87.1429 45.3433 86.9429 45.4874 86.6949V83.9947ZM49.9255 78.3543C50.0535 78.3543 50.1775 78.3743 50.2975 78.4143C50.4255 78.4543 50.5455 78.4743 50.6575 78.4743C50.7535 78.4743 50.9256 78.4543 51.1736 78.4143C51.4216 78.3663 51.6016 78.3423 51.7136 78.3423C51.8336 78.3423 51.9336 78.3583 52.0136 78.3903C52.6617 78.6543 53.1697 79.1704 53.5377 79.9384C53.9297 80.7625 54.1258 81.8066 54.1258 83.0706C54.1258 84.6707 53.8537 85.9988 53.3097 87.0549C52.8377 87.975 52.3336 88.435 51.7976 88.435C51.7256 88.435 51.6576 88.423 51.5936 88.399C51.5856 88.399 51.3976 88.375 51.0296 88.327C50.2135 88.231 49.5375 87.6789 49.0014 86.6709C48.4734 85.6628 48.2094 84.4627 48.2094 83.0706C48.2094 82.0706 48.3814 81.0505 48.7254 80.0104C49.1014 78.9064 49.5015 78.3543 49.9255 78.3543ZM51.1256 79.5424C50.7095 79.5424 50.3815 80.0464 50.1415 81.0545C49.9735 81.7665 49.8895 82.4386 49.8895 83.0706C49.8895 83.6947 49.9975 84.4587 50.2135 85.3628C50.4855 86.4749 50.7975 87.0309 51.1496 87.0309C51.5336 87.0309 51.8656 86.4669 52.1456 85.3388C52.3856 84.3707 52.4857 83.6147 52.4457 83.0706C52.3256 80.7185 51.8856 79.5424 51.1256 79.5424ZM56.6704 84.5347L56.7784 86.7549C57.0264 86.5869 57.4104 86.2628 57.9305 85.7828C58.4505 85.2948 58.7545 84.7547 58.8425 84.1627C58.8425 83.7867 58.6505 83.5987 58.2665 83.5987C57.7385 83.5987 57.2064 83.9107 56.6704 84.5347ZM55.6143 88.111C55.1663 87.8789 54.9423 87.7149 54.9423 87.6189C54.9423 87.4669 55.0183 87.2669 55.1703 87.0189L54.9303 79.5064C54.7943 79.2744 54.7263 79.0904 54.7263 78.9544C54.7263 78.5623 55.0183 78.3663 55.6023 78.3663C55.8903 78.3663 56.1144 78.3903 56.2744 78.4383C56.4424 78.4863 56.5584 78.5103 56.6224 78.5103C56.6544 78.4943 56.8384 78.4343 57.1744 78.3303C57.5185 78.2183 57.9105 78.1623 58.3505 78.1623C59.3506 78.1623 59.9626 78.4543 60.1866 79.0384C60.2746 79.2704 60.3186 79.5064 60.3186 79.7464C60.3186 80.6985 59.7906 81.6025 58.7345 82.4586C58.9905 82.4106 59.2026 82.3866 59.3706 82.3866C60.0186 82.3866 60.3826 82.8506 60.4626 83.7787C60.4866 84.5787 59.9826 85.5788 58.9505 86.7789C57.9265 87.979 57.1464 88.603 56.6104 88.651C56.1864 88.603 55.8543 88.423 55.6143 88.111ZM56.4904 80.1784L56.6224 82.8306C57.9585 81.6465 58.6265 80.7825 58.6265 80.2385C58.6265 79.8624 58.4145 79.6744 57.9905 79.6744C57.7425 79.6744 57.5024 79.7104 57.2704 79.7824C57.0464 79.8544 56.7864 79.9864 56.4904 80.1784ZM62.817 78.3543C62.945 78.3543 63.069 78.3743 63.189 78.4143C63.317 78.4543 63.437 78.4743 63.549 78.4743C63.645 78.4743 63.817 78.4543 64.065 78.4143C64.313 78.3663 64.4931 78.3423 64.6051 78.3423C64.7251 78.3423 64.8251 78.3583 64.9051 78.3903C65.5531 78.6543 66.0612 79.1704 66.4292 79.9384C66.8212 80.7625 67.0172 81.8066 67.0172 83.0706C67.0172 84.6707 66.7452 85.9988 66.2012 87.0549C65.7291 87.975 65.2251 88.435 64.6891 88.435C64.6171 88.435 64.5491 88.423 64.4851 88.399C64.4771 88.399 64.289 88.375 63.921 88.327C63.105 88.231 62.4289 87.6789 61.8929 86.6709C61.3649 85.6628 61.1008 84.4627 61.1008 83.0706C61.1008 82.0706 61.2729 81.0505 61.6169 80.0104C61.9929 78.9064 62.3929 78.3543 62.817 78.3543ZM64.017 79.5424C63.601 79.5424 63.273 80.0464 63.033 81.0545C62.865 81.7665 62.7809 82.4386 62.7809 83.0706C62.7809 83.6947 62.889 84.4587 63.105 85.3628C63.377 86.4749 63.689 87.0309 64.041 87.0309C64.4251 87.0309 64.7571 86.4669 65.0371 85.3388C65.2771 84.3707 65.3771 83.6147 65.3371 83.0706C65.2171 80.7185 64.7771 79.5424 64.017 79.5424Z" fill="white"/>
</svg>
