<svg width="98" height="132" viewBox="0 0 98 132" fill="none" xmlns="http://www.w3.org/2000/svg">
<path d="M46.8221 11.1811C46.2621 12.6953 45.9414 14.2477 46.1255 15.8736L46.1271 15.8751C46.2207 16.7019 46.572 17.2469 47.5202 17.1918C47.6217 17.1858 47.7234 17.1785 47.8252 17.1712C48.4222 17.1286 49.0232 17.0857 49.6131 17.2898C49.7097 17.3226 49.8226 17.3092 49.9354 17.2959C49.9855 17.2899 50.0355 17.284 50.0841 17.2821C50.0758 17.2318 50.0712 17.1798 50.0666 17.1278C50.0569 17.017 50.0472 16.9058 50.0012 16.8121C49.2095 15.1801 49.1497 13.4669 49.4658 11.7277C49.9567 9.04077 50.4431 6.36001 49.4964 3.67158C49.3537 2.78514 49.0361 1.96912 48.5114 1.23883C48.4619 1.16994 48.3848 1.12176 48.3074 1.07342C48.2695 1.04981 48.2316 1.02613 48.1969 1C48.1881 1.03794 48.1772 1.07587 48.1662 1.11389C48.141 1.20163 48.1155 1.29001 48.1155 1.37969C48.1098 2.446 48.1092 3.51144 48.1086 4.57732V4.57894C48.1085 4.93414 48.1083 5.28968 48.1079 5.64503C47.8701 7.53428 47.4834 9.38984 46.8221 11.1811Z" fill="#F5D165"/>
<path d="M55.7244 18.9233C56.2952 17.8792 56.2445 16.7554 56.0942 15.6271C55.9561 14.5952 56.1985 13.8435 57.2787 13.3827C58.789 12.7396 59.9696 11.64 61.1494 10.5411C61.4666 10.2457 61.7837 9.95033 62.1072 9.66389C62.4841 9.31148 62.8607 8.95906 63.2374 8.60645L63.2848 8.56212C63.6468 8.22332 64.0089 7.88433 64.3718 7.545C64.3937 7.52324 64.4162 7.50111 64.4391 7.47862L64.4769 7.44146C64.4884 7.43013 64.4999 7.41871 64.5115 7.40721C64.5711 7.35562 64.6306 7.30341 64.6904 7.25107C64.8398 7.12013 64.9901 6.9884 65.1436 6.8637C65.3523 6.69223 65.5637 6.52348 65.7751 6.35473C65.8807 6.27043 65.9865 6.18592 66.0918 6.10127C66.0405 6.22651 65.9934 6.35404 65.9463 6.48149C65.8444 6.75747 65.7426 7.03344 65.5978 7.28473C65.3318 7.74233 65.0399 8.1852 64.7484 8.62765L64.748 8.62825C64.6192 8.82361 64.4906 9.01888 64.3642 9.21531C63.9685 10.0905 63.5821 10.9704 63.1958 11.8501L63.1954 11.851C62.2817 13.9317 61.3682 16.0118 60.332 18.0292C59.3792 19.8848 57.9676 20.2032 56.0251 19.4515C56.0154 19.4477 56.0058 19.444 55.9961 19.4403L55.9626 19.4277C55.7324 19.341 55.5372 19.2676 55.7259 18.9233H55.7244Z" fill="#F5D165"/>
<path d="M66.1256 20.4038C67.0854 19.9912 68.0154 19.5094 68.9454 19.0277C70.8518 18.0401 72.7583 17.0526 74.9218 16.6605C75.8163 16.4982 76.7001 16.4814 77.5916 16.5227C77.6993 16.528 77.8043 16.598 77.9088 16.6677C77.9575 16.7003 78.0061 16.7327 78.0549 16.7585C78.0311 16.7907 78.0093 16.8295 77.9874 16.8683C77.9417 16.9495 77.8963 17.0302 77.834 17.0479C74.9602 17.8516 73.274 20.0609 71.5893 22.2716C71.4331 22.8152 71.0215 23.1334 70.6106 23.4511C70.5169 23.5235 70.4232 23.5959 70.3327 23.6709L70.3265 23.6771C68.5483 25.0351 66.549 25.4699 64.3688 25.0458C62.7853 24.7365 62.5629 24.0613 63.551 22.7217C63.9622 21.4571 65.0439 20.8677 66.124 20.4038H66.1256Z" fill="#F5D165"/>
<path d="M80.7377 33.2967C79.3578 33.7923 77.9773 34.2881 76.5267 34.5532C76.5267 34.5529 76.5267 34.5526 76.5269 34.5524C76.527 34.5521 76.5272 34.5519 76.5274 34.5517C76.5278 34.5513 76.5282 34.5509 76.5282 34.5502L76.3252 34.6142C75.8255 34.772 75.3267 34.9294 74.8266 35.0845C72.9593 35.4933 71.0998 35.8209 69.2202 35.109C67.7964 34.5701 67.0553 33.0498 67.5432 31.6183C67.7426 31.035 68.1999 30.9477 68.7093 30.9049C70.091 30.7862 71.3431 31.2566 72.5869 31.7238C72.7877 31.7992 72.9886 31.8747 73.1895 31.9475C73.3898 32.0203 73.5902 32.0361 73.7872 32.0517C73.996 32.0682 74.2012 32.0844 74.3985 32.1679C75.8756 32.3637 77.3533 32.3003 78.8309 32.2369C79.6523 32.2016 80.4741 32.1663 81.2953 32.1756C81.3354 32.1759 81.3776 32.1757 81.421 32.1755C81.8044 32.1737 82.2875 32.1715 82.3509 32.514C82.4167 32.8603 82.0925 32.913 81.79 32.962C81.6834 32.9793 81.5795 32.9962 81.4963 33.0253H81.4979C81.2444 33.1148 80.9913 33.2056 80.7382 33.2965L80.7377 33.2967Z" fill="#F5D165"/>
<path d="M47.7517 68.1287C47.5064 68.7095 47.261 69.2903 47.0171 69.8717C46.965 69.9965 46.8817 70.1079 46.7981 70.2198C46.7586 70.2726 46.719 70.3255 46.6826 70.38C46.6718 70.3197 46.6587 70.2595 46.6457 70.1993C46.6164 70.0637 46.5871 69.9283 46.5829 69.7936C46.5733 69.4507 46.5756 69.1077 46.5778 68.7647L46.5778 68.7639C46.5788 68.6141 46.5798 68.4644 46.5798 68.3147H46.7041C46.7041 67.5318 46.7057 66.7491 46.7073 65.9664C46.7118 63.7751 46.7162 61.5843 46.6857 59.3936C46.6784 58.7554 46.5027 58.1116 46.3318 57.4849L46.3082 57.3987C46.1165 56.6929 46.4095 56.1494 46.879 55.7391C47.3593 55.3181 47.9085 55.6044 48.3842 55.8754C50.1548 56.8858 50.991 60.1683 50.0305 62.6102V62.6087C49.3011 64.4609 48.5264 66.2949 47.7517 68.1287Z" fill="#F5D165"/>
<path d="M79.8016 48.383C80.0557 48.4259 80.3097 48.4687 80.5635 48.5128L80.5619 48.5113C80.649 48.5265 80.748 48.5627 80.8496 48.5999C81.1368 48.7049 81.4444 48.8173 81.5577 48.4837C81.6706 48.1528 81.2502 47.9192 80.9155 47.7331L80.9141 47.7323C80.8926 47.7204 80.8716 47.7087 80.8511 47.6972L80.8268 47.6835L80.8044 47.6708C80.0932 47.2604 79.36 46.889 78.6269 46.5175C77.3085 45.8496 75.9901 45.1816 74.799 44.2873C74.6683 44.1183 74.498 44.0042 74.3245 43.8881C74.1601 43.7779 73.9928 43.6659 73.8539 43.5034C73.7157 43.3428 73.5791 43.1801 73.4423 43.0173L73.4418 43.0167C72.5867 41.9987 71.7261 40.9742 70.463 40.4001C69.9981 40.1888 69.5593 40.0403 69.0975 40.4506C67.9682 41.4595 67.8654 43.1467 68.8412 44.3133C70.1301 45.855 71.9114 46.4797 73.7388 47.0385C74.1782 47.1322 74.6168 47.2242 75.0564 47.3163L75.4833 47.4059C75.4833 47.4077 75.4823 47.4079 75.4814 47.4081C75.4808 47.4082 75.4803 47.4084 75.4803 47.409C76.8861 47.8914 78.3442 48.1373 79.8016 48.383Z" fill="#F5D165"/>
<path d="M70.4623 52.8171C69.765 52.0375 69.0677 51.2581 68.4301 50.4327L68.4317 50.4312C67.7136 49.5034 66.8743 48.6016 65.5441 48.5174C63.999 47.8928 63.3976 48.2755 63.4896 49.8831C63.6154 52.0954 64.533 53.9203 66.2913 55.3043L66.2974 55.3089C66.3927 55.3778 66.4862 55.4503 66.5797 55.5229L66.5801 55.5232C66.9894 55.8409 67.4 56.1595 67.9668 56.177C70.5291 57.2594 73.0914 58.3433 74.5828 60.9231C74.6163 60.9805 74.7068 61.0044 74.7976 61.0284C74.8399 61.0396 74.8822 61.0508 74.9188 61.0654C74.9317 61.0103 74.9516 60.9539 74.9715 60.8975C75.0129 60.7802 75.0541 60.6631 75.0323 60.5587C74.8528 59.686 74.6165 58.8348 74.2391 58.0111C73.3231 56.0154 71.8926 54.4162 70.4623 52.8171Z" fill="#F5D165"/>
<path d="M59.9928 58.6266C61.343 61.2124 61.0208 63.7692 59.8532 66.306C59.8092 66.4032 59.7023 66.4712 59.5954 66.5391C59.5457 66.5707 59.4961 66.6022 59.4528 66.6367C59.4352 66.5927 59.415 66.549 59.3948 66.5053C59.3497 66.4075 59.3045 66.3096 59.2886 66.208C59.2118 65.711 59.1442 65.2139 59.0766 64.7168C59.0563 64.5678 59.036 64.4188 59.0155 64.2698C59.0011 64.2085 58.9866 64.1472 58.9721 64.0859L58.9716 64.0837C58.9428 63.962 58.914 63.8403 58.8866 63.7187C58.8605 63.6773 58.8559 63.6314 58.8697 63.587C58.8559 63.414 58.8421 63.241 58.8267 63.068C58.793 63.0052 58.7608 62.944 58.7285 62.8812C58.5021 61.822 57.9597 60.9178 57.4171 60.0132C57.195 59.6429 56.9728 59.2725 56.7723 58.8914C55.91 57.2502 55.6706 55.5554 56.6158 53.8621C56.8966 53.3584 57.3016 52.8333 57.9829 52.9267C58.6574 53.0207 58.7566 53.6255 58.8435 54.1559L58.8544 54.2219C59.1014 55.7253 59.4251 57.2089 59.9913 58.6266H59.9928Z" fill="#F5D165"/>
<path d="M65.9461 38.52C66.7378 33.9684 65.63 29.8485 62.859 26.2093V26.2078C59.3562 21.6087 54.3619 20.217 48.8859 19.9797C43.9454 19.7608 37.3125 23.0386 34.0935 27.7357C31.5511 31.4453 30.0521 35.2805 30.9727 39.7892C32.2569 46.0939 36.0851 50.1617 42.1073 52.3036C47.1583 54.101 52.2216 54.0014 56.8813 51.4967C61.9568 48.7685 64.9488 44.2505 65.9461 38.52Z" fill="#F5D165"/>
<path d="M32.9858 53.5406C32.295 54.1278 31.4688 54.4664 30.6414 54.8056C29.9306 55.097 29.2189 55.3887 28.5914 55.8386C26.7457 56.8476 22.7994 56.5995 21.3433 55.3839C21.1592 55.2293 21.1484 55.1466 21.5903 55.0165C22.4598 54.7581 23.3388 54.5321 24.2176 54.3061C24.5623 54.2175 24.9072 54.1287 25.2512 54.0382C27.3333 53.3844 29.0241 52.2576 30.1887 50.3408C30.8009 49.3304 32.1143 49.2799 32.952 50.0698C33.9907 51.0527 34.0383 52.648 32.9858 53.5421V53.5406Z" fill="#F5D165"/>
<path d="M24.6374 14.7976C24.6283 14.8609 24.6192 14.9243 24.6451 14.9688V14.9657C24.9764 15.5619 25.317 16.1534 25.6577 16.7453L25.8142 17.0172C25.822 17.0484 25.8275 17.0803 25.833 17.1122C25.8437 17.1744 25.8544 17.2361 25.8817 17.2898L25.9511 17.4213C27.3292 20.0321 28.7077 22.6439 28.9673 25.6658C28.9991 26.0328 29.166 25.9174 29.3104 25.8176C29.3401 25.797 29.3689 25.7772 29.3953 25.7623C30.4233 25.1866 31.5004 25.2172 32.6144 25.4331C32.7098 25.4514 32.8067 25.506 32.904 25.5608C33.1086 25.676 33.3144 25.792 33.5089 25.5709C33.7249 25.3257 33.6174 25.0482 33.5123 24.7771C33.4763 24.6842 33.4407 24.5921 33.4183 24.5023C33.357 24.2542 33.2434 24.0169 33.1314 23.7858C31.8343 21.0892 29.711 19.1115 27.5879 17.1339C27.0893 16.6695 26.5906 16.205 26.1027 15.7312C25.9815 15.3895 25.6983 15.2413 25.4144 15.0928C25.2238 14.993 25.0329 14.8932 24.8906 14.7345C24.8636 14.7045 24.7994 14.7067 24.7351 14.7089C24.7043 14.7099 24.6734 14.711 24.6466 14.7085C24.6461 14.7368 24.6417 14.7672 24.6374 14.7976Z" fill="#F5D165"/>
<path d="M34.6214 7.86568C34.6163 7.79911 34.6112 7.73229 34.6014 7.66748C34.6649 7.67976 34.7295 7.68873 34.794 7.69768C34.9304 7.71662 35.0661 7.73546 35.1891 7.78536C37.8833 8.88002 39.6555 10.7616 40.1081 13.6981C40.2169 14.4117 40.4657 15.0757 40.7142 15.7388C40.9002 16.2352 41.086 16.7311 41.2128 17.2469C41.443 18.1808 41.443 19.104 40.6712 19.7899C39.7567 20.6044 38.6612 21.3086 37.4169 20.8968C36.7091 20.661 36.7337 20.063 36.7597 19.4322C36.7717 19.1414 36.784 18.8437 36.7249 18.5712C37.1008 15.8445 37.0318 13.0841 35.7798 10.4707C35.6178 10.1306 35.4491 9.79411 35.2804 9.45772C35.083 9.06426 34.8857 8.67084 34.6996 8.27222C34.6432 8.15016 34.6323 8.00817 34.6214 7.86568Z" fill="#F5D165"/>
<path d="M40.8444 55.5232C40.8414 55.488 40.8322 55.4023 40.8168 55.315L40.8138 55.3135C40.4486 53.1303 40.3504 53.0645 38.6872 54.3719C38.4277 54.5759 38.1531 54.7646 37.8784 54.9535C36.9673 55.5797 36.0534 56.2079 35.6738 57.4018C35.029 59.4381 34.348 61.4624 33.667 63.4868C33.3466 64.4394 33.0261 65.392 32.7095 66.3458C32.6832 66.4234 32.6771 66.5073 32.6709 66.5919C32.6681 66.6309 32.6652 66.67 32.6604 66.7087C32.6849 66.6864 32.7096 66.6646 32.7342 66.6428L32.7372 66.6402L32.7377 66.6397C32.798 66.5865 32.8576 66.5339 32.9135 66.476C33.2266 66.1484 33.5409 65.8218 33.8553 65.4952L33.8557 65.4948L33.857 65.4935C35.631 63.6504 37.4059 61.8065 38.9603 59.7717C39.0221 59.6908 39.0845 59.6098 39.147 59.5287L39.1475 59.528C39.9928 58.4312 40.8682 57.2952 40.8368 55.4666C40.8414 55.4926 40.8429 55.5125 40.8444 55.5232Z" fill="#F5D165"/>
<path d="M20.3643 32.3578C19.3532 32.0956 18.5861 31.4 17.8135 30.6992C17.2824 30.2176 16.7486 29.7335 16.1311 29.3861C16.0935 29.3653 16.0651 29.3309 16.0368 29.2966C16.0235 29.2806 16.0103 29.2645 15.9961 29.2499C16.0313 29.2444 16.0667 29.2362 16.1021 29.2281C16.1745 29.2114 16.2467 29.1947 16.3168 29.2009C16.7047 29.2397 17.0931 29.2764 17.4815 29.313C18.4708 29.4064 19.4607 29.4998 20.4456 29.6296C21.4866 29.7675 22.5358 29.7518 23.5848 29.7362C24.98 29.7153 26.3748 29.6944 27.749 30.0353C28.7463 30.2818 29.3616 30.862 29.3616 32.2705C29.3069 32.4706 29.2495 32.6933 29.1881 32.9319C29.022 33.5768 28.8261 34.3374 28.5729 35.0784C28.395 35.5989 27.7736 35.9556 27.39 35.5377C25.692 33.688 23.4686 33.1332 21.2038 32.568C20.9248 32.4984 20.6452 32.4286 20.3658 32.3563L20.3643 32.3578Z" fill="#F5D165"/>
<path d="M17.5488 46.6603C19.2672 46.766 20.9688 46.6894 22.6658 46.3312L22.6642 46.3327C23.1888 46.2223 23.71 46.0768 24.2316 45.9313C25.8505 45.4797 27.4725 45.0272 29.2051 45.6177C30.098 45.9224 30.4479 45.558 30.4295 44.6486C30.3784 44.4054 30.3293 44.1615 30.2802 43.9174C30.1728 43.384 30.0654 42.8498 29.9369 42.3215C29.6193 41.0002 28.6282 40.6053 27.4237 40.6818C26.3282 40.7492 25.3324 41.1442 24.4855 41.8913C24.3276 42.0302 24.1707 42.1708 24.0138 42.3113C22.9137 43.2966 21.8106 44.2845 20.3551 44.7588C20.2126 44.8052 20.0697 44.8505 19.9268 44.8959C19.0413 45.1767 18.1553 45.4576 17.3785 45.9928C17.2709 46.0668 17.1897 46.1784 17.1081 46.2903C17.0698 46.3429 17.0315 46.3955 16.9903 46.4445C17.0487 46.4681 17.107 46.4971 17.1653 46.5262C17.2923 46.5896 17.4195 46.653 17.5488 46.6603Z" fill="#F5D165"/>
<path d="M91.2684 55.4608C91.1766 55.9232 91.1123 56.3963 90.9852 56.8495C90.1706 59.7769 89.399 62.7243 88.5217 65.6333C88.4221 65.9656 88.3196 66.2948 88.217 66.6209C87.7592 65.9794 87.0411 65.5752 86.1301 65.4833C85.7673 65.4465 85.3799 65.4619 84.968 65.5292C85.3508 64.6473 85.6616 63.7195 85.8989 62.7105C86.2266 61.3218 86.6308 59.9132 87.2478 58.6225C87.701 57.6732 88.3027 56.7776 89.0928 56.0748C89.3347 55.8604 91.2608 54.6509 91.2684 55.4593V55.4608ZM80.4804 66.6285C81.6134 66.3269 82.7556 66.0345 83.8978 65.7665C84.0876 63.1714 84.2132 60.57 84.3709 57.9718C84.4 57.5018 84.3648 57.0271 84.3571 56.5555C84.181 55.767 82.5489 57.3532 82.3591 57.612C81.7313 58.4648 81.3317 59.4661 81.0867 60.4889C80.7514 61.8806 80.6504 63.3428 80.6213 64.7698C80.6075 65.4113 80.56 66.0284 80.4789 66.6285H80.4804ZM76.1138 67.8274C77.2299 67.5166 78.3614 67.1996 79.5036 66.8904C79.6506 64.6733 79.7623 62.4548 79.8971 60.2409C79.9262 59.7693 79.8909 59.2947 79.8833 58.8231C79.7072 58.0346 78.0751 59.6208 77.8852 59.8795C77.2575 60.7323 76.8579 61.7352 76.6129 62.7564C76.2776 64.1482 76.1765 65.6104 76.1475 67.0373C76.1413 67.3068 76.1306 67.5686 76.1122 67.8274H76.1138ZM94.8221 55.248C94.032 55.9492 93.4303 56.8464 92.9771 57.7957C92.3601 59.0864 91.9559 60.495 91.6298 61.8837C91.028 64.4437 89.941 66.477 88.4466 68.6052C87.7622 69.582 87.0105 70.4838 86.1653 71.2953C85.5728 71.8633 84.9359 72.3869 84.2408 72.857C83.6314 73.2704 82.9929 73.6287 82.3376 73.9486C81.4021 74.4064 80.4314 74.7877 79.4485 75.1444C78.9784 75.3144 78.5206 75.4996 78.0751 75.7079C77.8056 75.8334 77.5407 75.9681 77.2835 76.1151C76.5042 76.55 75.7769 77.0751 75.1308 77.732C75.0175 77.8468 74.8537 77.9126 74.7144 78.0014C74.7205 77.9846 74.7266 77.9677 74.7327 77.9509C74.7496 77.905 74.7664 77.8606 74.7848 77.8162C75.2686 76.6464 75.9545 75.691 76.8318 74.9377C77.1335 74.6774 77.4565 74.4417 77.8041 74.2288C78.0843 74.0574 78.3798 73.9012 78.6875 73.7603C78.9279 73.6486 79.1759 73.5475 79.4332 73.4572C80.6182 73.0331 81.8186 72.6457 82.9807 72.1726C84.0172 71.75 85.0247 71.2585 85.9632 70.6109C86.271 70.3981 86.617 70.2006 86.9079 69.9617C87.2723 69.6631 87.551 69.2987 87.5709 68.7583C87.5755 68.6542 87.5739 68.5546 87.5693 68.4582C87.4974 67.0404 86.5022 66.4203 84.8593 66.797C84.6679 66.8414 84.475 66.8858 84.2821 66.9317C84.1213 66.97 83.9606 67.0067 83.7998 67.0481C82.6132 67.3328 81.4297 67.6391 80.2492 67.956C79.9706 68.0295 79.6904 68.106 79.4132 68.1811C78.2649 68.4949 77.1182 68.8165 75.9714 69.138C74.1264 69.6524 72.283 70.1669 70.4273 70.64C67.1952 71.4668 64.3612 72.687 62.6601 75.7691C61.7185 77.4763 60.976 79.2676 60.2089 81.0529C57.8816 86.4928 55.804 92.0307 53.6176 97.5243C53.4828 97.8596 53.3833 98.2209 53.6513 98.5577C54.3219 99.3922 55.0843 100.089 56.202 100.256C59.5612 100.981 61.2056 98.7154 62.2789 95.8906C63.2833 93.2464 64.3887 90.6038 66.0622 88.3225C67.676 86.1223 70.0415 84.0109 72.7837 83.4215C76.7584 82.5671 82.5014 81.529 85.4932 78.6093C86.0046 78.1086 86.444 77.5406 86.8803 76.9725C89.918 73.0254 92.7964 69.6386 94.251 64.802C95.1252 61.8944 95.8999 58.9471 96.7145 56.0197C96.84 55.5665 96.9043 55.0934 96.9962 54.631C96.9901 53.8226 95.0624 55.0321 94.8205 55.2465L94.8221 55.248Z" fill="#FFD1A7"/>
<path d="M8.89967 56.0763C9.68971 56.7791 10.2914 57.6748 10.7446 58.624C11.3617 59.9147 11.7659 61.3233 12.0935 62.712C12.3308 63.721 12.6416 64.6488 13.0244 65.5308C12.6125 65.4634 12.2252 65.4481 11.8623 65.4848C10.9513 65.5767 10.2332 65.9809 9.77545 66.6224C9.67134 66.2963 9.57029 65.9656 9.47077 65.6349C8.59346 62.7258 7.82179 59.7785 7.00726 56.851C6.88018 56.3978 6.81587 55.9247 6.72401 55.4623C6.73166 54.6539 8.65776 55.8635 8.89967 56.0778V56.0763ZM17.3712 64.7698C17.3421 63.3428 17.241 61.8806 16.9057 60.4889C16.6607 59.4661 16.2611 58.4633 15.6334 57.612C15.442 57.3532 13.8114 55.767 13.6353 56.5555C13.6292 57.0286 13.594 57.5033 13.6215 57.9718C13.7792 60.5685 13.9048 63.1713 14.0946 65.7665C15.2368 66.0345 16.379 66.3269 17.512 66.6285C17.4324 66.0284 17.3834 65.4113 17.3696 64.7698H17.3712ZM21.845 67.0373C21.8159 65.6104 21.7148 64.1482 21.3795 62.7564C21.1361 61.7352 20.7349 60.7308 20.1072 59.8795C19.9158 59.6208 18.2852 58.0346 18.1091 58.8231C18.103 59.2962 18.0678 59.7708 18.0954 60.2409C18.2301 62.4548 18.3419 64.6733 18.4888 66.8903C19.631 67.1996 20.7625 67.5166 21.8787 67.8274C21.8603 67.5671 21.8496 67.3053 21.8434 67.0373H21.845ZM0.994695 54.631C1.08656 55.0934 1.15087 55.5665 1.27641 56.0197C2.09095 58.9471 2.86415 61.8944 3.73993 64.802C5.19599 69.6402 8.07289 73.0269 11.1106 76.9725C11.5469 77.539 11.9863 78.1086 12.4977 78.6093C15.4895 81.5306 21.231 82.5671 25.2072 83.4215C27.9479 84.0109 30.3149 86.1238 31.9287 88.3224C33.6022 90.6038 34.7061 93.2464 35.712 95.8906C36.7853 98.7154 38.4312 100.981 41.7889 100.256C42.9066 100.09 43.669 99.3937 44.3396 98.5577C44.6076 98.2209 44.5081 97.8611 44.3733 97.5243C42.1885 92.0307 40.1108 86.4928 37.782 81.0529C37.0149 79.2661 36.2739 77.4763 35.3307 75.7691C33.6297 72.687 30.7972 71.4668 27.5636 70.64C25.7079 70.1653 23.8645 69.6524 22.0195 69.138C20.8727 68.818 19.7275 68.4949 18.5776 68.1811C18.299 68.106 18.0188 68.0295 17.7417 67.956C16.5612 67.6391 15.3792 67.3313 14.1911 67.0481C14.0303 67.0067 13.8696 66.97 13.7088 66.9317C13.5159 66.8858 13.3245 66.8414 13.1316 66.797C11.4887 66.4203 10.4935 67.0404 10.4216 68.4582C10.4154 68.5546 10.4154 68.6542 10.42 68.7583C10.4384 69.2987 10.7186 69.6616 11.083 69.9617C11.3754 70.2021 11.7215 70.3996 12.0277 70.6109C12.9647 71.2585 13.9737 71.75 15.0102 72.1726C16.1738 72.6457 17.3742 73.0331 18.5577 73.4572C18.815 73.549 19.063 73.6501 19.3034 73.7603C19.6111 73.8997 19.9066 74.0574 20.1868 74.2288C20.5344 74.4417 20.8574 74.6774 21.159 74.9377C22.0364 75.691 22.7223 76.6464 23.2061 77.8162C23.2245 77.8606 23.2413 77.905 23.2582 77.9509C23.2643 77.9677 23.2704 77.9846 23.2765 78.0014C23.1372 77.9126 22.9734 77.8468 22.8601 77.732C22.2124 77.0751 21.4852 76.55 20.7074 76.1151C20.4502 75.9681 20.1853 75.8334 19.9158 75.7079C19.4703 75.4981 19.0109 75.3144 18.5424 75.1444C17.5595 74.7877 16.5888 74.4064 15.6533 73.9486C14.998 73.6286 14.358 73.2688 13.7501 72.857C13.055 72.3885 12.4181 71.8648 11.8256 71.2953C10.9804 70.4838 10.2287 69.582 9.54426 68.6052C8.04992 66.4754 6.96285 64.4437 6.36114 61.8837C6.03502 60.495 5.63081 59.0849 5.01379 57.7957C4.56059 56.8464 3.95887 55.9492 3.16883 55.248C2.92692 55.0336 0.999288 53.8241 0.993164 54.6325L0.994695 54.631Z" fill="#FFD1A7"/>
<path d="M1.56108 30.4186C2.89489 31.743 3.71243 33.6417 3.71086 35.6942C3.70772 38.605 4.2538 43.2796 4.35109 44.582C4.44681 45.8845 4.74966 48.3104 5.84495 49.9016C5.89516 49.9753 5.88732 50.0914 5.90615 50.1872C5.81984 50.1166 5.71157 50.0616 5.65037 49.9738C3.6732 47.143 4.47976 43.2922 3.51157 40.0471C3.10673 38.6898 1.87648 38.004 1.18291 36.8852C-0.0300738 34.9316 -0.380002 32.9073 0.461081 30.7387C0.5976 30.3856 0.726273 29.8035 1.56265 30.4186H1.56108ZM0.120568 22.1113C-0.0630266 25.2685 1.65523 27.3822 3.98233 29.1836C4.32284 29.4473 4.32127 29.317 4.39346 29.0518C5.39303 25.4145 4.54567 23.0215 1.52499 20.6881C0.887899 20.1954 0.65566 20.4951 0.275917 21.1306C0.239826 21.3503 0.142536 21.73 0.120568 22.1129V22.1113ZM3.72341 13.6581C2.29075 16.478 3.01571 19.1016 4.42641 21.6845C4.63197 22.0627 4.68219 21.9419 4.85637 21.7284C7.23054 18.7972 7.41257 16.2645 5.57976 12.9159C5.19374 12.2098 4.86107 12.3902 4.25851 12.8202C4.13768 13.0069 3.89602 13.3161 3.72185 13.6581H3.72341ZM8.52983 6.91535C6.70173 9.49666 7.03753 12.1988 8.0575 14.959C8.20657 15.3623 8.27405 15.2509 8.47647 15.0641C11.2524 12.5095 11.8 10.0302 10.4756 6.45087C10.1963 5.69609 9.84009 5.82634 9.18261 6.16371C9.0351 6.33005 8.75265 6.60151 8.52983 6.91535ZM14.9588 1.90808C12.696 4.1175 12.5391 6.83689 13.0459 9.73517C13.1197 10.1589 13.206 10.0616 13.4382 9.91406C16.6284 7.9008 17.6138 5.56114 16.9563 1.80138C16.8183 1.00894 16.4448 1.07328 15.7355 1.28669C15.5613 1.42478 15.2334 1.63975 14.9588 1.90808ZM23.503 0.285548C20.5749 1.48284 19.409 3.94332 18.7876 6.81963C18.6966 7.24017 18.8127 7.18211 19.0842 7.13347C22.7968 6.46656 24.5904 4.66985 25.3938 0.938329C25.5633 0.150598 25.193 0.0690008 24.457 0.00152588C24.2436 0.0642932 23.8592 0.139614 23.503 0.285548ZM10.1963 31.1388C7.2682 32.3361 6.1023 34.7966 5.4809 37.6729C5.38989 38.0935 5.50601 38.0354 5.77748 37.9868C9.49017 37.3199 11.2837 35.5231 12.0872 31.7916C12.2566 31.0055 11.8863 30.9239 11.1504 30.8564C10.937 30.9192 10.5525 30.9945 10.1963 31.1404V31.1388ZM9.66278 24.3254C6.73468 25.5227 5.56878 27.9832 4.94738 30.8595C4.85637 31.2801 4.97248 31.222 5.24395 31.1734C8.95664 30.5065 10.7502 28.7097 11.5536 24.9782C11.7231 24.1921 11.3528 24.1105 10.6168 24.043C10.4034 24.1058 10.019 24.1811 9.66278 24.327V24.3254ZM13.0444 17.2861C9.89345 17.5638 8.05279 19.5708 6.60914 22.1349C6.39887 22.5099 6.52598 22.4895 6.80058 22.5225C10.5447 22.9822 12.7886 21.7959 14.6591 18.4677C15.0529 17.7663 14.7234 17.5795 14.0408 17.2971C13.818 17.2939 13.4288 17.2531 13.0459 17.2861H13.0444ZM17.6311 10.57C14.4802 10.8477 12.6395 12.8547 11.1959 15.4188C10.9856 15.7938 11.1127 15.7734 11.3873 15.8063C15.1314 16.2661 17.3753 15.0798 19.2458 11.7516C19.6397 11.0502 19.3101 10.8634 18.6275 10.581C18.4047 10.5778 18.0155 10.537 17.6327 10.57H17.6311Z" fill="#F5D165"/>
<path d="M97.5326 30.7387C98.3736 32.9074 98.0237 34.9316 96.8107 36.8852C96.1172 38.0041 94.8869 38.6898 94.4821 40.0471C93.5154 43.2906 94.3204 47.1414 92.3433 49.9738C92.2821 50.0617 92.1738 50.1166 92.0875 50.1872C92.1063 50.0915 92.0969 49.9754 92.1487 49.9016C93.2424 48.3105 93.5453 45.8845 93.6426 44.5821C93.7398 43.2797 94.2859 38.6035 94.2828 35.6942C94.2796 33.6417 95.0972 31.743 96.4326 30.4186C97.2689 29.8035 97.3976 30.3857 97.5341 30.7387H97.5326ZM97.7146 21.1291C97.3364 20.4935 97.1026 20.1954 96.4655 20.6866C93.4448 23.0215 92.5975 25.4129 93.597 29.0503C93.6708 29.3155 93.6677 29.4457 94.0082 29.1821C96.3353 27.3807 98.052 25.267 97.8699 22.1098C97.848 21.7254 97.7507 21.3472 97.7146 21.1275V21.1291ZM93.7304 12.8202C93.1294 12.3903 92.7952 12.2098 92.4092 12.916C90.5779 16.2646 90.76 18.7973 93.1326 21.7285C93.3052 21.9419 93.357 22.0627 93.5625 21.6846C94.9732 19.1017 95.6982 16.478 94.2655 13.6582C94.0913 13.3161 93.8497 13.007 93.7289 12.8202H93.7304ZM88.8079 6.16375C88.1504 5.82638 87.7942 5.69614 87.5149 6.45092C86.1905 10.0318 86.7397 12.5095 89.514 15.0642C89.7165 15.2509 89.7839 15.3623 89.933 14.959C90.953 12.1988 91.2888 9.4967 89.4607 6.91539C89.2379 6.60156 88.9554 6.33166 88.8079 6.16375ZM82.255 1.28673C81.5473 1.07332 81.1738 1.00899 81.0342 1.80142C80.3767 5.56119 81.3621 7.90084 84.5523 9.9141C84.7845 10.0616 84.8708 10.1589 84.9446 9.73522C85.4498 6.83693 85.2945 4.11754 83.0317 1.90813C82.7571 1.6398 82.4292 1.42482 82.255 1.28673ZM73.535 0.00156918C72.7991 0.0690441 72.4288 0.150642 72.5982 0.936803C73.4016 4.66832 75.1952 6.46504 78.9079 7.13194C79.1794 7.18059 79.2955 7.23865 79.2045 6.8181C78.5831 3.94179 77.4172 1.48131 74.4891 0.284022C74.1329 0.138088 73.7484 0.0627674 73.535 0V0.00156918ZM86.8417 30.8549C86.1058 30.9223 85.7354 31.0039 85.9049 31.7901C86.7083 35.5216 88.5019 37.3183 92.2146 37.9852C92.4861 38.0339 92.6022 38.0919 92.5112 37.6714C91.8898 34.7951 90.7239 32.3346 87.7958 31.1373C87.4396 30.9914 87.0551 30.9161 86.8417 30.8533V30.8549ZM87.3752 24.0415C86.6393 24.1089 86.269 24.1905 86.4384 24.9767C87.2418 28.7082 89.0354 30.5049 92.7481 31.1718C93.0196 31.2205 93.1357 31.2785 93.0447 30.858C92.4233 27.9817 91.2574 25.5212 88.3293 24.3239C87.9731 24.178 87.5886 24.1027 87.3752 24.0399V24.0415ZM83.9528 17.2971C83.2687 17.5796 82.9391 17.7663 83.3346 18.4677C85.2051 21.796 87.449 22.9823 91.1931 22.5225C91.4661 22.4895 91.5948 22.5099 91.3845 22.1349C89.9408 19.5709 88.1002 17.5639 84.9493 17.2861C84.5664 17.2516 84.1772 17.294 83.9544 17.2971H83.9528ZM79.3661 10.581C78.682 10.8635 78.3524 11.0502 78.7479 11.7516C80.6183 15.0799 82.8623 16.2662 86.6063 15.8064C86.8794 15.7734 87.008 15.7938 86.7978 15.4188C85.3541 12.8548 83.5135 10.8478 80.3625 10.57C79.9797 10.5355 79.5905 10.5779 79.3677 10.581H79.3661Z" fill="#F5D165"/>
<path d="M3.66189 121.563C3.69648 122.854 3.7426 124.042 3.80025 125.126C5.24142 124.284 6.15801 123.275 6.55001 122.099C6.59613 121.269 6.31366 120.843 5.7026 120.82C4.79178 120.843 4.11154 121.09 3.66189 121.563ZM3.3506 114.109L6.96507 113.556C7.38013 113.302 7.67413 113.176 7.84707 113.176C8.14684 113.176 8.41201 113.412 8.6426 113.885C8.85013 114.3 8.95389 114.697 8.95389 115.078C8.95389 115.378 8.85589 115.626 8.65989 115.822C8.47542 116.006 8.28519 116.098 8.08919 116.098C7.87013 116.098 7.52425 115.989 7.05154 115.77L3.40248 116.358L3.57542 119.488C4.16342 119.05 5.02237 118.831 6.15225 118.831C8.02001 118.831 8.97119 119.695 9.00578 121.425C9.04037 121.955 8.8386 122.647 8.40048 123.5C7.28213 125.391 5.97931 126.815 4.49201 127.772C4.35366 128.106 4.06542 128.291 3.62731 128.325C3.08542 128.348 2.5666 128.112 2.07084 127.616C1.57507 127.132 1.32719 126.798 1.32719 126.613C1.32719 126.394 1.43672 126.106 1.65578 125.748L1.17154 115.528C0.98707 115.136 0.894835 114.807 0.894835 114.542C0.894835 114.357 0.940953 114.23 1.03319 114.161C1.21766 114.034 1.37907 113.96 1.51742 113.936C1.56354 113.936 1.78836 113.942 2.19189 113.954C2.60695 113.954 2.99319 114.006 3.3506 114.109ZM12.0599 128.204C11.9677 128.239 11.8639 128.256 11.7487 128.256C11.3797 128.256 11.005 128.141 10.6245 127.91C10.2441 127.68 10.0538 127.472 10.0538 127.288C10.0538 127.08 10.1634 126.798 10.3824 126.44L10.2095 115.216C10.0135 114.87 9.91547 114.599 9.91547 114.403C9.91547 113.838 10.3363 113.556 11.1779 113.556C11.6968 113.556 12.1522 113.689 12.5442 113.954C12.8901 114.196 13.063 114.45 13.063 114.715C13.063 114.853 12.9189 115.21 12.6307 115.787L12.8036 123.12C14.1525 119.938 15.4554 117.101 16.7121 114.611C16.6659 114.473 16.6429 114.357 16.6429 114.265C16.6429 113.712 17.0464 113.435 17.8535 113.435C18.3262 113.435 18.7643 113.544 19.1678 113.764C19.5829 113.983 19.7904 114.254 19.7904 114.576C19.7904 114.715 19.6463 115.072 19.3581 115.649V126.129C19.5541 126.509 19.6521 126.844 19.6521 127.132C19.6521 127.524 19.3062 127.72 18.6144 127.72C18.1994 127.72 17.7612 127.616 17.3001 127.409C16.8389 127.201 16.6083 126.999 16.6083 126.803C16.6083 126.596 16.7178 126.313 16.9369 125.956V118.883C16.1183 120.969 14.8212 123.76 13.0457 127.253C12.9881 127.403 12.9304 127.547 12.8728 127.685C12.7114 127.939 12.4404 128.112 12.0599 128.204ZM23.1793 113.504C23.3637 113.504 23.5424 113.533 23.7154 113.591C23.8998 113.648 24.0728 113.677 24.2342 113.677C24.3725 113.677 24.6204 113.648 24.9778 113.591C25.3353 113.521 25.5947 113.487 25.7561 113.487C25.929 113.487 26.0731 113.51 26.1884 113.556C27.1223 113.936 27.8544 114.68 28.3848 115.787C28.9497 116.974 29.2322 118.479 29.2322 120.301C29.2322 122.607 28.8402 124.52 28.0562 126.042C27.376 127.368 26.6496 128.031 25.8771 128.031C25.7734 128.031 25.6754 128.014 25.5831 127.979C25.5716 127.979 25.3007 127.945 24.7703 127.876C23.5943 127.737 22.6201 126.942 21.8476 125.489C21.0867 124.036 20.7062 122.307 20.7062 120.301C20.7062 118.86 20.9541 117.39 21.4498 115.891C21.9917 114.3 22.5682 113.504 23.1793 113.504ZM24.9087 115.216C24.3091 115.216 23.8364 115.943 23.4905 117.395C23.2484 118.421 23.1274 119.39 23.1274 120.301C23.1274 121.2 23.283 122.301 23.5943 123.604C23.9863 125.206 24.436 126.008 24.9433 126.008C25.4967 126.008 25.9751 125.195 26.3787 123.569C26.7245 122.174 26.8687 121.085 26.811 120.301C26.6381 116.911 26.004 115.216 24.9087 115.216ZM32.242 128.204C32.1498 128.239 32.046 128.256 31.9308 128.256C31.5618 128.256 31.1871 128.141 30.8066 127.91C30.4262 127.68 30.2359 127.472 30.2359 127.288C30.2359 127.08 30.3455 126.798 30.5645 126.44L30.3916 115.216C30.1956 114.87 30.0976 114.599 30.0976 114.403C30.0976 113.838 30.5184 113.556 31.36 113.556C31.8789 113.556 32.3343 113.689 32.7263 113.954C33.0722 114.196 33.2451 114.45 33.2451 114.715C33.2451 114.853 33.101 115.21 32.8128 115.787L32.9857 123.12C34.3346 119.938 35.6375 117.101 36.8942 114.611C36.848 114.473 36.825 114.357 36.825 114.265C36.825 113.712 37.2285 113.435 38.0356 113.435C38.5083 113.435 38.9464 113.544 39.3499 113.764C39.765 113.983 39.9725 114.254 39.9725 114.576C39.9725 114.715 39.8284 115.072 39.5402 115.649V126.129C39.7362 126.509 39.8342 126.844 39.8342 127.132C39.8342 127.524 39.4883 127.72 38.7965 127.72C38.3815 127.72 37.9433 127.616 37.4822 127.409C37.021 127.201 36.7904 126.999 36.7904 126.803C36.7904 126.596 36.8999 126.313 37.119 125.956V118.883C36.3004 120.969 35.0033 123.76 33.2278 127.253C33.1702 127.403 33.1125 127.547 33.0549 127.685C32.8935 127.939 32.6225 128.112 32.242 128.204ZM47.1834 121.632L43.7245 122.151V126.388C43.9205 126.769 44.0185 127.109 44.0185 127.409C44.0185 127.801 43.6726 127.997 42.9809 127.997C42.5543 127.997 42.1104 127.887 41.6492 127.668C41.1996 127.46 40.9748 127.264 40.9748 127.08C40.9748 126.861 41.0843 126.573 41.3034 126.215V122.462C41.2226 122.37 41.1477 122.255 41.0785 122.117C41.0209 121.967 40.9921 121.794 40.9921 121.598C40.9921 121.31 41.0266 121.079 41.0958 120.906C41.165 120.722 41.2342 120.549 41.3034 120.387V115.164C41.1074 114.83 41.0094 114.565 41.0094 114.369C41.0094 113.804 41.4302 113.521 42.2718 113.521C42.7906 113.521 43.2345 113.648 43.6035 113.902C43.9724 114.156 44.1569 114.415 44.1569 114.68C44.1569 114.807 44.0128 115.159 43.7245 115.735V119.938L47.1834 119.419V115.095C47.0104 114.703 46.9239 114.375 46.9239 114.109C46.9239 113.925 46.9701 113.798 47.0623 113.729C47.2352 113.602 47.3909 113.533 47.5292 113.521C47.7368 113.521 47.9443 113.521 48.1518 113.521C48.5669 113.498 48.9589 113.568 49.3278 113.729C49.8005 113.936 50.0369 114.254 50.0369 114.68C50.0369 114.807 49.8928 115.159 49.6045 115.735V119.09C49.7198 119.182 49.8236 119.292 49.9158 119.419C50.0081 119.534 50.0542 119.701 50.0542 119.92C50.0542 120.255 50.0081 120.549 49.9158 120.802C49.8236 121.044 49.7198 121.235 49.6045 121.373V125.696C49.8121 126.181 49.9158 126.521 49.9158 126.717C49.9158 127.109 49.5699 127.305 48.8782 127.305C48.4516 127.305 48.0077 127.201 47.5465 126.994C47.0969 126.774 46.8721 126.573 46.8721 126.388C46.8721 126.169 46.9758 125.881 47.1834 125.524V121.632ZM58.2485 122.272C58.1562 122.353 58.041 122.393 57.9026 122.393C57.845 122.393 57.7124 122.376 57.5048 122.341C57.3088 122.295 57.1532 122.284 57.0379 122.307L53.4061 122.86C53.2678 122.883 53.0891 122.947 52.87 123.05C52.651 123.143 52.478 123.189 52.3512 123.189C52.0745 123.189 51.8266 123.056 51.6075 122.791C51.4 122.514 51.2962 122.238 51.2962 121.961C51.2962 121.73 51.3654 121.534 51.5038 121.373C51.5499 121.327 51.7228 121.298 52.0226 121.286C52.4377 121.275 52.7144 121.258 52.8527 121.235L56.5882 120.612C56.669 120.6 56.8419 120.56 57.1071 120.491C57.3031 120.445 57.4587 120.422 57.574 120.422C57.7124 120.422 57.8334 120.451 57.9372 120.508C58.2946 120.716 58.4733 121.096 58.4733 121.65C58.4733 121.938 58.3984 122.145 58.2485 122.272ZM66.0481 121.632L62.5893 122.151V126.388C62.7853 126.769 62.8833 127.109 62.8833 127.409C62.8833 127.801 62.5374 127.997 61.8457 127.997C61.4191 127.997 60.9752 127.887 60.514 127.668C60.0644 127.46 59.8395 127.264 59.8395 127.08C59.8395 126.861 59.9491 126.573 60.1681 126.215V122.462C60.0874 122.37 60.0125 122.255 59.9433 122.117C59.8857 121.967 59.8568 121.794 59.8568 121.598C59.8568 121.31 59.8914 121.079 59.9606 120.906C60.0298 120.722 60.099 120.549 60.1681 120.387V115.164C59.9721 114.83 59.8741 114.565 59.8741 114.369C59.8741 113.804 60.295 113.521 61.1366 113.521C61.6554 113.521 62.0993 113.648 62.4682 113.902C62.8372 114.156 63.0217 114.415 63.0217 114.68C63.0217 114.807 62.8775 115.159 62.5893 115.735V119.938L66.0481 119.419V115.095C65.8752 114.703 65.7887 114.375 65.7887 114.109C65.7887 113.925 65.8348 113.798 65.9271 113.729C66.1 113.602 66.2557 113.533 66.394 113.521C66.6015 113.521 66.8091 113.521 67.0166 113.521C67.4317 113.498 67.8237 113.568 68.1926 113.729C68.6653 113.936 68.9017 114.254 68.9017 114.68C68.9017 114.807 68.7575 115.159 68.4693 115.735V119.09C68.5846 119.182 68.6884 119.292 68.7806 119.419C68.8728 119.534 68.919 119.701 68.919 119.92C68.919 120.255 68.8728 120.549 68.7806 120.802C68.6884 121.044 68.5846 121.235 68.4693 121.373V125.696C68.6768 126.181 68.7806 126.521 68.7806 126.717C68.7806 127.109 68.4347 127.305 67.743 127.305C67.3164 127.305 66.8725 127.201 66.4113 126.994C65.9617 126.774 65.7368 126.573 65.7368 126.388C65.7368 126.169 65.8406 125.881 66.0481 125.524V121.632ZM72.4438 113.504C72.6283 113.504 72.807 113.533 72.98 113.591C73.1644 113.648 73.3374 113.677 73.4988 113.677C73.6371 113.677 73.885 113.648 74.2424 113.591C74.5998 113.521 74.8593 113.487 75.0207 113.487C75.1936 113.487 75.3377 113.51 75.453 113.556C76.3869 113.936 77.119 114.68 77.6494 115.787C78.2143 116.974 78.4968 118.479 78.4968 120.301C78.4968 122.607 78.1048 124.52 77.3208 126.042C76.6406 127.368 75.9142 128.031 75.1417 128.031C75.038 128.031 74.94 128.014 74.8477 127.979C74.8362 127.979 74.5653 127.945 74.0349 127.876C72.8589 127.737 71.8847 126.942 71.1122 125.489C70.3513 124.036 69.9708 122.307 69.9708 120.301C69.9708 118.86 70.2187 117.39 70.7144 115.891C71.2563 114.3 71.8328 113.504 72.4438 113.504ZM74.1733 115.216C73.5737 115.216 73.101 115.943 72.7551 117.395C72.513 118.421 72.392 119.39 72.392 120.301C72.392 121.2 72.5476 122.301 72.8589 123.604C73.2509 125.206 73.7006 126.008 74.2078 126.008C74.7613 126.008 75.2397 125.195 75.6433 123.569C75.9891 122.174 76.1333 121.085 76.0756 120.301C75.9027 116.911 75.2686 115.216 74.1733 115.216ZM82.1638 122.411L82.3195 125.61C82.6769 125.368 83.2303 124.901 83.9797 124.209C84.7291 123.506 85.1672 122.728 85.2941 121.874C85.2941 121.333 85.0173 121.062 84.4639 121.062C83.703 121.062 82.9363 121.511 82.1638 122.411ZM80.6419 127.564C79.9963 127.23 79.6735 126.994 79.6735 126.855C79.6735 126.636 79.783 126.348 80.0021 125.99L79.6562 115.164C79.4602 114.83 79.3622 114.565 79.3622 114.369C79.3622 113.804 79.783 113.521 80.6246 113.521C81.0397 113.521 81.3625 113.556 81.5931 113.625C81.8352 113.694 82.0024 113.729 82.0946 113.729C82.1408 113.706 82.4059 113.619 82.8902 113.47C83.3859 113.308 83.9509 113.227 84.585 113.227C86.0262 113.227 86.9082 113.648 87.231 114.49C87.3578 114.824 87.4212 115.164 87.4212 115.51C87.4212 116.882 86.6603 118.185 85.1384 119.419C85.5073 119.35 85.8129 119.315 86.055 119.315C86.9889 119.315 87.5135 119.984 87.6288 121.321C87.6633 122.474 86.937 123.915 85.4497 125.645C83.9739 127.374 82.8498 128.273 82.0773 128.342C81.4663 128.273 80.9878 128.014 80.6419 127.564ZM81.9044 116.133L82.0946 119.955C84.0201 118.248 84.9828 117.003 84.9828 116.219C84.9828 115.677 84.6772 115.406 84.0662 115.406C83.7088 115.406 83.3629 115.458 83.0285 115.562C82.7057 115.666 82.331 115.856 81.9044 116.133ZM91.0215 113.504C91.206 113.504 91.3847 113.533 91.5576 113.591C91.7421 113.648 91.915 113.677 92.0765 113.677C92.2148 113.677 92.4627 113.648 92.8201 113.591C93.1775 113.521 93.4369 113.487 93.5983 113.487C93.7713 113.487 93.9154 113.51 94.0307 113.556C94.9646 113.936 95.6967 114.68 96.227 115.787C96.792 116.974 97.0745 118.479 97.0745 120.301C97.0745 122.607 96.6825 124.52 95.8985 126.042C95.2182 127.368 94.4919 128.031 93.7194 128.031C93.6156 128.031 93.5176 128.014 93.4254 127.979C93.4139 127.979 93.1429 127.945 92.6126 127.876C91.4366 127.737 90.4623 126.942 89.6899 125.489C88.9289 124.036 88.5485 122.307 88.5485 120.301C88.5485 118.86 88.7963 117.39 89.2921 115.891C89.834 114.3 90.4105 113.504 91.0215 113.504ZM92.7509 115.216C92.1514 115.216 91.6787 115.943 91.3328 117.395C91.0907 118.421 90.9696 119.39 90.9696 120.301C90.9696 121.2 91.1253 122.301 91.4366 123.604C91.8286 125.206 92.2782 126.008 92.7855 126.008C93.3389 126.008 93.8174 125.195 94.2209 123.569C94.5668 122.174 94.7109 121.085 94.6533 120.301C94.4803 116.911 93.8462 115.216 92.7509 115.216Z" fill="white"/>
</svg>
