<svg width="191" height="199" viewBox="0 0 191 199" fill="none" xmlns="http://www.w3.org/2000/svg">
<g opacity="0.3">
<path d="M176.976 58.4508C173.76 67.1437 171.919 76.0564 172.976 85.3909L172.985 85.3997C173.523 90.1461 175.54 93.2752 180.984 92.9588C181.566 92.9242 182.15 92.8825 182.735 92.8408C186.162 92.5962 189.612 92.3499 192.999 93.5213C193.554 93.71 194.202 93.6331 194.849 93.5564C195.137 93.5223 195.424 93.4882 195.703 93.4774C195.655 93.1886 195.629 92.89 195.603 92.5915C195.547 91.9551 195.491 91.317 195.227 90.779C190.682 81.4092 190.338 71.5737 192.153 61.5887C194.972 46.163 197.764 30.7724 192.329 15.3378C191.51 10.2487 189.687 5.56381 186.674 1.37118C186.39 0.975618 185.947 0.699026 185.503 0.421537C185.285 0.28596 185.068 0.149997 184.868 0C184.818 0.217796 184.755 0.435591 184.692 0.653872C184.547 1.15758 184.401 1.66498 184.401 2.17982C184.368 8.30162 184.365 14.4185 184.362 20.5378V20.5471C184.361 22.5863 184.36 24.6275 184.357 26.6676C182.992 37.514 180.772 48.167 176.976 58.4508Z" fill="#5C9200"/>
<path d="M228.085 102.9C231.361 96.9053 231.071 90.4538 230.207 83.9758C229.415 78.0516 230.806 73.7359 237.008 71.0903C245.679 67.3981 252.457 61.0853 259.23 54.7767C261.051 53.0806 262.872 51.3848 264.729 49.7403C266.893 47.7171 269.055 45.6938 271.218 43.6695L271.49 43.4149C273.568 41.4699 275.647 39.5237 277.731 37.5755C277.856 37.4506 277.985 37.3236 278.117 37.1945L278.334 36.9811C278.4 36.9161 278.466 36.8505 278.532 36.7845C278.874 36.4883 279.216 36.1886 279.559 35.8881C280.417 35.1363 281.28 34.3801 282.161 33.6642C283.359 32.6797 284.573 31.7109 285.787 30.7421C286.393 30.2581 287.001 29.7729 287.605 29.287C287.31 30.006 287.04 30.7381 286.77 31.4699C286.185 33.0543 285.6 34.6387 284.769 36.0813C283.242 38.7085 281.566 41.2511 279.892 43.7912L279.89 43.7946C279.151 44.9162 278.412 46.0373 277.686 47.165C275.415 52.1898 273.196 57.241 270.979 62.2916L270.976 62.2966C265.731 74.2423 260.486 86.1847 254.537 97.7667C249.067 108.42 240.963 110.248 229.811 105.932C229.755 105.91 229.7 105.889 229.644 105.868L229.452 105.795C228.13 105.298 227.01 104.876 228.093 102.9H228.085Z" fill="#5C9200"/>
<path d="M287.799 111.399C293.309 109.03 298.649 106.265 303.988 103.499C314.933 97.8293 325.878 92.1596 338.299 89.9088C343.435 88.9771 348.509 88.8804 353.626 89.1177C354.245 89.1477 354.848 89.5498 355.448 89.9502C355.727 90.1369 356.007 90.3232 356.287 90.4713C356.15 90.6559 356.024 90.8791 355.899 91.1017C355.637 91.5679 355.376 92.0314 355.018 92.1326C338.519 96.7471 328.839 109.43 319.167 122.123C318.27 125.244 315.907 127.07 313.548 128.894C313.01 129.31 312.472 129.726 311.952 130.156L311.917 130.191C301.708 137.988 290.23 140.484 277.713 138.049C268.622 136.274 267.345 132.398 273.018 124.707C275.379 117.447 281.589 114.063 287.79 111.399H287.799Z" fill="#5C9200"/>
<path d="M371.688 185.419C363.767 188.264 355.841 191.11 347.513 192.633C347.513 192.631 347.513 192.629 347.514 192.628C347.515 192.626 347.516 192.625 347.517 192.624C347.519 192.622 347.521 192.619 347.521 192.615L346.356 192.983C343.487 193.889 340.623 194.792 337.753 195.683C327.032 198.03 316.356 199.911 305.565 195.823C297.391 192.729 293.136 184.001 295.938 175.783C297.083 172.434 299.708 171.933 302.632 171.687C310.565 171.006 317.753 173.706 324.894 176.389C326.047 176.822 327.201 177.255 328.354 177.673C329.504 178.091 330.654 178.182 331.785 178.271C332.984 178.366 334.162 178.459 335.295 178.939C343.775 180.063 352.259 179.698 360.741 179.334C365.457 179.132 370.176 178.929 374.89 178.983C375.12 178.984 375.362 178.983 375.611 178.982C377.813 178.972 380.587 178.959 380.951 180.925C381.328 182.914 379.467 183.216 377.73 183.498C377.118 183.597 376.522 183.694 376.044 183.861H376.053C374.598 184.374 373.145 184.896 371.692 185.418L371.688 185.419Z" fill="#5C9200"/>
<path d="M182.312 385.394C180.904 388.728 179.495 392.062 178.095 395.4C177.796 396.117 177.318 396.756 176.838 397.398C176.611 397.702 176.384 398.005 176.175 398.318C176.112 397.972 176.038 397.626 175.963 397.281C175.795 396.502 175.627 395.725 175.602 394.952C175.547 392.983 175.56 391.014 175.573 389.045L175.573 389.04C175.579 388.18 175.585 387.321 175.585 386.461H176.298C176.298 381.967 176.307 377.473 176.316 372.979C176.342 360.399 176.368 347.821 176.192 335.244C176.15 331.58 175.142 327.884 174.16 324.286L174.025 323.791C172.924 319.739 174.607 316.619 177.302 314.263C180.059 311.846 183.213 313.49 185.944 315.046C196.109 320.847 200.91 339.692 195.395 353.711V353.702C191.208 364.336 186.76 374.865 182.312 385.394Z" fill="#5C9200"/>
<path d="M366.314 272.031C367.773 272.277 369.232 272.523 370.688 272.776L370.68 272.768C371.179 272.855 371.748 273.063 372.331 273.276C373.98 273.879 375.746 274.525 376.397 272.609C377.044 270.709 374.631 269.368 372.709 268.3L372.701 268.296C372.578 268.227 372.457 268.16 372.34 268.094L372.2 268.015L372.071 267.942C367.988 265.586 363.779 263.454 359.57 261.321C352.002 257.486 344.432 253.651 337.594 248.517C336.844 247.547 335.866 246.892 334.87 246.225C333.926 245.593 332.965 244.949 332.168 244.017C331.375 243.095 330.59 242.161 329.805 241.226L329.802 241.223C324.893 235.378 319.952 229.496 312.701 226.2C310.032 224.987 307.512 224.135 304.861 226.49C298.378 232.283 297.787 241.969 303.39 248.667C310.789 257.518 321.016 261.104 331.507 264.312C334.03 264.85 336.548 265.378 339.072 265.907L341.523 266.421C341.523 266.432 341.517 266.433 341.512 266.434C341.508 266.435 341.505 266.435 341.505 266.439C349.576 269.208 357.947 270.62 366.314 272.031Z" fill="#5C9200"/>
<path d="M312.696 297.487C308.693 293.012 304.69 288.537 301.03 283.799L301.039 283.79C296.916 278.463 292.098 273.286 284.46 272.803C275.59 269.217 272.137 271.414 272.666 280.643C273.388 293.344 278.656 303.821 288.75 311.767L288.786 311.793C289.332 312.189 289.869 312.605 290.406 313.022L290.408 313.024C292.758 314.847 295.116 316.677 298.369 316.777C313.08 322.991 327.791 329.214 336.353 344.025C336.545 344.355 337.065 344.492 337.586 344.63C337.829 344.694 338.072 344.758 338.282 344.842C338.356 344.526 338.47 344.202 338.584 343.878C338.822 343.205 339.059 342.533 338.934 341.933C337.903 336.923 336.546 332.036 334.38 327.307C329.121 315.849 320.908 306.668 312.696 297.487Z" fill="#5C9200"/>
<path d="M252.59 330.84C260.342 345.686 258.492 360.365 251.789 374.929C251.536 375.487 250.922 375.877 250.309 376.267C250.023 376.448 249.738 376.63 249.489 376.828C249.389 376.575 249.273 376.324 249.157 376.073C248.898 375.512 248.638 374.95 248.547 374.367C248.106 371.513 247.718 368.659 247.33 365.805C247.213 364.95 247.097 364.094 246.979 363.239C246.897 362.887 246.813 362.535 246.73 362.183L246.727 362.171C246.562 361.472 246.397 360.773 246.239 360.075C246.089 359.837 246.063 359.574 246.142 359.319C246.063 358.326 245.984 357.332 245.895 356.339C245.702 355.979 245.517 355.627 245.332 355.267C244.032 349.186 240.918 343.995 237.803 338.801C236.527 336.675 235.252 334.549 234.101 332.361C229.15 322.939 227.776 313.209 233.202 303.487C234.814 300.595 237.14 297.581 241.051 298.117C244.924 298.657 245.493 302.129 245.992 305.174L246.054 305.553C247.472 314.184 249.331 322.701 252.581 330.84H252.59Z" fill="#5C9200"/>
<path d="M286.768 215.407C291.314 189.275 284.954 165.622 269.045 144.73V144.721C248.935 118.317 220.263 110.327 188.824 108.965C160.46 107.708 122.38 126.526 103.899 153.493C89.3033 174.79 80.6972 196.808 85.9824 222.693C93.3553 258.889 115.333 282.243 149.907 294.539C178.906 304.858 207.974 304.287 234.726 289.907C263.866 274.244 281.043 248.306 286.768 215.407Z" fill="#5C9200"/>
<path d="M97.5395 301.641C93.5736 305.012 88.8303 306.957 84.0802 308.904C79.9995 310.577 75.9137 312.251 72.3113 314.835C61.7144 320.627 39.0584 319.203 30.6989 312.224C29.6419 311.336 29.5802 310.862 32.1171 310.115C37.1089 308.631 42.1552 307.333 47.2006 306.036C49.1793 305.527 51.1597 305.018 53.1347 304.498C65.0882 300.745 74.7954 294.276 81.4812 283.271C84.9959 277.47 92.5361 277.18 97.3457 281.715C103.309 287.358 103.582 296.517 97.5395 301.65V301.641Z" fill="#5C9200"/>
<path d="M49.6106 79.2135C49.5583 79.5771 49.506 79.9409 49.6548 80.1963V80.1787C51.5569 83.6013 53.5121 86.9974 55.4685 90.3957L56.367 91.9568C56.4118 92.1354 56.4434 92.319 56.4749 92.5019C56.5364 92.859 56.5973 93.2132 56.7546 93.5213L57.1531 94.2762C65.0645 109.265 72.9789 124.26 74.469 141.609C74.6516 143.716 75.6098 143.054 76.4391 142.48C76.6097 142.363 76.7748 142.248 76.9266 142.163C82.8284 138.858 89.0121 139.034 95.4073 140.273C95.955 140.378 96.5118 140.692 97.0701 141.006C98.2449 141.668 99.4262 142.333 100.543 141.064C101.783 139.657 101.166 138.064 100.563 136.507C100.356 135.974 100.151 135.445 100.023 134.929C99.6707 133.505 99.0189 132.143 98.3758 130.816C90.9286 115.334 78.7388 103.98 66.5498 92.6265C63.6871 89.96 60.8242 87.2934 58.0231 84.5735C57.3273 82.6118 55.7012 81.7609 54.0713 80.9081C52.9772 80.3356 51.8814 79.7623 51.0642 78.8515C50.9093 78.6791 50.5408 78.6916 50.1714 78.7042C49.9947 78.7103 49.8174 78.7163 49.6636 78.7021C49.6607 78.8645 49.6357 79.039 49.6106 79.2135Z" fill="#5C9200"/>
<path d="M106.93 39.4166C106.901 39.0344 106.871 38.6508 106.815 38.2787C107.18 38.3492 107.551 38.4007 107.921 38.4521C108.704 38.5608 109.483 38.669 110.189 38.9555C125.657 45.2401 135.831 56.0425 138.43 72.9009C139.054 76.9978 140.483 80.8101 141.91 84.6172C142.977 87.467 144.044 90.3139 144.772 93.2752C146.093 98.6369 146.093 103.937 141.663 107.875C136.413 112.551 130.123 116.594 122.979 114.23C118.915 112.876 119.057 109.443 119.206 105.821C119.275 104.152 119.346 102.442 119.006 100.878C121.165 85.224 120.768 69.3763 113.58 54.3725C112.651 52.4199 111.682 50.4879 110.713 48.5567C109.58 46.2978 108.447 44.0391 107.379 41.7506C107.055 41.0498 106.992 40.2347 106.93 39.4166Z" fill="#5C9200"/>
<path d="M142.657 313.024C142.64 312.822 142.587 312.33 142.499 311.829L142.481 311.82C140.384 299.286 139.821 298.908 130.272 306.414C128.782 307.585 127.206 308.669 125.628 309.753C120.398 313.348 115.151 316.955 112.972 323.809C109.27 335.5 105.36 347.122 101.451 358.743C99.6111 364.212 97.7714 369.681 95.9533 375.158C95.8026 375.603 95.7674 376.085 95.732 376.57C95.7156 376.794 95.6992 377.019 95.6714 377.241C95.8124 377.113 95.9541 376.987 96.0953 376.863L96.1126 376.847L96.1155 376.845C96.4615 376.54 96.804 376.237 97.1248 375.905C98.9223 374.024 100.727 372.149 102.532 370.274L102.534 370.272L102.541 370.264C112.726 359.683 122.916 349.097 131.84 337.415C132.195 336.95 132.553 336.485 132.912 336.02L132.915 336.016C137.768 329.719 142.793 323.197 142.613 312.699C142.639 312.848 142.648 312.962 142.657 313.024Z" fill="#5C9200"/>
<path d="M25.0784 180.029C19.2734 178.523 14.8698 174.53 10.4339 170.507C7.38479 167.741 4.32044 164.962 0.775172 162.968C0.559203 162.848 0.396346 162.651 0.233736 162.454C0.1576 162.362 0.0814567 162.27 0 162.186C0.202245 162.154 0.405438 162.107 0.608335 162.06C1.024 161.965 1.43853 161.869 1.84103 161.904C4.06838 162.127 6.29783 162.338 8.5276 162.548C14.2074 163.084 19.8906 163.621 25.5453 164.365C31.5218 165.158 37.5454 165.068 43.5673 164.977C51.5777 164.858 59.5851 164.738 67.4748 166.695C73.2005 168.11 76.7328 171.441 76.7328 179.528C76.4188 180.676 76.0894 181.955 75.7367 183.325C74.783 187.027 73.6583 191.394 72.2051 195.648C71.1833 198.636 67.6157 200.684 65.4136 198.285C55.6652 187.665 42.9005 184.48 29.8981 181.236C28.2964 180.836 26.691 180.435 25.0872 180.02L25.0784 180.029Z" fill="#5C9200"/>
<path d="M8.91427 262.141C18.78 262.747 28.5489 262.308 38.2914 260.251L38.2825 260.26C41.294 259.626 44.2866 258.791 47.2811 257.956C56.5755 255.363 65.8873 252.765 75.8341 256.155C80.9608 257.904 82.9692 255.812 82.8635 250.591C82.5704 249.195 82.2886 247.795 82.0066 246.394C81.3903 243.331 80.7732 240.265 80.0359 237.231C78.2125 229.646 72.522 227.378 65.6072 227.818C59.3178 228.204 53.6009 230.472 48.7385 234.761C47.8323 235.559 46.9316 236.366 46.0305 237.173C39.7145 242.83 33.3819 248.501 25.0254 251.224C24.2076 251.491 23.3871 251.751 22.5665 252.011C17.4827 253.623 12.3962 255.236 7.9365 258.309C7.31901 258.733 6.85248 259.374 6.38418 260.017C6.16441 260.319 5.94424 260.621 5.7079 260.902C6.04328 261.037 6.37779 261.204 6.71253 261.371C7.44159 261.735 8.17173 262.099 8.91427 262.141Z" fill="#5C9200"/>
</g>
</svg>
